<svg xmlns="http://www.w3.org/2000/svg" viewBox="0 0 19 26"><path d="M4.94 14.76s-.02.07-.07.07c-.1 0-.44-.24-1.03-.73-.2-.15-.43-.29-.71-.42s-.51-.24-.68-.31-.26-.12-.26-.15c0-.05.1-.07.29-.07.39.02.79.16 1.19.4s.71.48.93.71.33.4.33.5ZM2.7 11.64c.15 0 .39.06.73.18s.78.38 1.3.77q.795.585 1.26 1.47c.1.24.15.38.15.4 0 .07-.02.11-.07.11l-.4-.4c-1.37-1.34-2.37-2.14-3.01-2.38-.07-.02-.11-.06-.11-.11 0-.02.05-.04.15-.04m1.61 3.7c-.2 0-.53-.06-1.01-.17s-.71-.23-.71-.35c0-.05.13-.07.4-.07.12 0 .3.04.53.13s.43.17.61.26c.17.09.26.14.26.16s-.02.04-.07.04Zm.95-.92s.02-.04.07-.04c.07 0 .27.16.59.48s.48.56.48.73-.07.26-.22.26c-.2 0-.44-.06-.73-.18s-.44-.22-.44-.29c0-.02.04-.04.11-.04s.2.02.38.07.29.07.31.07c.05 0 .07-.02.07-.07 0-.1-.1-.28-.31-.53-.21-.26-.31-.41-.31-.46m3.38 8.77c0 .07-.05.11-.15.11-.05 0-.12-.03-.2-.09-.09-.06-.15-.08-.2-.06q-.03 0-.66.42c-.42.28-.68.42-.81.42-.07 0-.11-.04-.11-.11 0-.02.12-.15.35-.37s.35-.34.35-.37-.02-.04-.07-.04c-.15 0-.32.02-.53.06s-.32.05-.35.05c-.07 0-.11-.02-.11-.07 0-.17.45-.31 1.36-.4.17-.02.28-.09.33-.18.05-.1.07-.35.07-.77 0-.17-.02-.35-.06-.53s-.05-.29-.05-.31c0-.05.04-.07.11-.07.27 0 .46.1.59.29.02.05.04.15.04.29q0 .765-.18 1.32c.2.15.29.28.29.4Zm1.87-.91c0 .34.03.57.09.68s.21.18.44.22.43.1.6.2c0 .02.02.05.06.07s.05.05.05.07c0 .05-.06.07-.18.07-.05 0-.23-.02-.53-.07-.31-.05-.51-.07-.61-.07-.02 0-.15.09-.38.28-.23.18-.41.28-.53.28-.05 0-.07-.04-.07-.11 0-.02.05-.09.15-.18.2-.24.26-.37.18-.37-.02 0-.18.06-.46.18s-.47.18-.57.18c-.07 0-.11-.02-.11-.07 0-.07.22-.25.66-.53s.66-.61.66-.97c0-.1 0-.21-.02-.35-.01-.13-.03-.28-.05-.44s-.04-.29-.04-.38c-.02-.07 0-.11.07-.11h.04c.42 0 .62.12.62.37 0 .1-.01.28-.04.53-.02.26-.04.43-.04.53Z" style="fill:#881c21"/><path d="M5.63 7.9s-.05-.13-.16-.26c-.11-.12-.24-.27-.39-.44s-.26-.29-.33-.37c-1-1.37-1.5-2.22-1.5-2.57 0-.07.04-.11.11-.11.05 0 .11.04.18.11 1.42 2.13 2.2 3.19 2.35 3.19.05 0 .07-.02.07-.07 0-.07-.32-.54-.97-1.39-.65-.86-.97-1.42-.97-1.69 0-.07.04-.11.11-.11.05 0 .39.46 1.03 1.39s1 1.39 1.1 1.39c.05 0 .07-.01.07-.04 0-.1-.29-.56-.86-1.38s-.86-1.29-.86-1.41c0-.07.04-.11.11-.11q.15 0 .84 1.17t.81 1.17c.05 0 .07-.02.07-.07s-.13-.32-.4-.81-.4-.81-.4-.95c0-.1.02-.15.07-.15.07 0 .28.36.62 1.08s.53 1.08.55 1.08c.05 0 .07-.05.07-.15s-.15-.48-.44-1.14-.44-1.04-.44-1.14c0-.07.04-.11.11-.11.05 0 .23.35.55 1.06l.51 1.06c.15.2.24.26.29.18 0-.02-.15-.56-.46-1.6s-.46-1.73-.46-2.07c0-.15.04-.22.11-.22.1 0 .29.57.57 1.7.28 1.14.46 1.71.53 1.71q.15 0 .15-.18 0-.15-.33-1.26c-.22-.75-.33-1.36-.33-1.85 0-.24.02-.37.07-.37.17 0 .35.52.55 1.56s.32 1.56.37 1.56c.07 0 .11-.12.11-.37 0-.1-.04-.46-.13-1.1s-.13-1.06-.13-1.28c0-.39.04-.59.11-.59.1 0 .2.3.29.9q.15.9.15 1.74c0 .37.06.55.18.55.07 0 .11-.2.11-.59 0-.22-.02-.57-.05-1.06q-.06-.735-.06-.99c0-.29.04-.44.11-.44.12 0 .21.49.28 1.47.06.98.13 1.47.2 1.47.12 0 .18-.37.18-1.1s.02-1.14.07-1.14c.17 0 .26.39.26 1.17 0 .1 0 .26-.02.48-.01.22-.02.38-.02.48q0 .33.18.18c.05-.02.07-.06.07-.11.02-.05.07-.24.15-.59.07-.34.15-.64.24-.88s.18-.37.28-.37c.07 0 .11.09.11.26 0 .12-.06.39-.18.79s-.18.68-.18.82c0 .05.04.07.11.07s.28-.51.62-1.54.56-1.54.66-1.54c.07 0 .11.18.11.55-.02.2-.1.49-.24.88-.13.39-.26.74-.37 1.05s-.16.47-.16.5c0 .07.04.11.11.11s.31-.5.72-1.49c.4-.99.67-1.48.79-1.48.05 0 .07.05.07.15 0 .27-.17.77-.49 1.5s-.5 1.15-.5 1.25c.02.02.05.04.07.04.07 0 .34-.41.79-1.23q.675-1.23.75-1.23c.07 0 .11.05.11.15 0 .12-.11.42-.33.88-.15.27-.3.53-.46.79s-.27.45-.35.57c-.07.12-.11.2-.11.22 0 .05.04.07.11.07.1 0 .33-.31.7-.94.37-.62.57-.93.62-.93.07 0 .11.05.11.15 0 .2-.17.55-.51 1.06l-.55.77c0 .07.02.11.07.11s.25-.24.6-.73.58-.73.68-.73c.05 0 .07.05.07.15 0 .15-.23.47-.68.97s-.68.78-.68.82l.07.07c.17 0 .66-.4 1.47-1.21.73-.81 1.14-1.21 1.21-1.21.05 0 .07.05.07.15 0 .27-.4.76-1.19 1.47s-1.19 1.08-1.19 1.1c0 .05.02.07.07.07.2 0 .73-.39 1.6-1.17s1.35-1.17 1.45-1.17c.05 0 .07.04.07.11 0 .17-.46.64-1.39 1.41S13.9 6.76 13.9 6.81c0 .07 0 .11.02.11h.09c.07 0 .5-.29 1.28-.86s1.23-.86 1.36-.86c.05 0 .07.02.07.07 0 .1-.07.21-.22.33-.73.54-1.39.99-1.98 1.36q-.33.225-.33.33c0 .105.02.11.07.11.02 0 .35-.2.97-.59s1.03-.59 1.23-.59c.12 0 .15.06.07.18-.02.07-.18.19-.48.35-.29.16-.61.33-.95.51q-.51.27-.66.39c-.12.12-.09.18.11.18.05 0 .32-.13.81-.4s.82-.4.99-.4q.18 0 .18.15 0 .075-.9.48c-.6.27-.9.45-.9.55 0 .07.05.11.15.11.02 0 .3-.07.83-.2.52-.13.82-.2.9-.2.2 0 .29.05.29.15s-.38.23-1.14.4-1.14.29-1.14.37c0 .1.04.15.11.15.12 0 .45-.07.99-.2s.87-.2.99-.2.18.04.18.11-.06.13-.16.16c-.11.04-.34.09-.68.15s-.67.14-.99.24c-.07.02-.13.06-.17.11s-.04.09 0 .13.09.05.17.05q.18 0 .81-.15c.42-.1.66-.15.73-.15.12 0 .18.04.18.11q0 .225-1.65.48c-.05 0-.09.02-.13.07q-.06.075 0 .15c.04.05.1.07.2.07.07 0 .27-.04.6-.11s.56-.11.68-.11c.07 0 .11.01.11.04 0 .12-.27.24-.81.35q-.81.165-.81.27c0 .105.09.11.26.11.12 0 .32-.04.59-.11l.4-.07c.12 0 .18.04.18.11 0 .12-.35.23-1.04.33-.7.1-1.04.23-1.04.4.02.02.06.04.11.04s.18-.02.39-.07.36-.07.46-.07c.15 0 .22.05.22.15q0 .105-.51.18c-.34.05-.56.07-.66.07-.12 0-.18.04-.18.11 0 .05.04.07.11.07.1 0 .23-.01.4-.04.17-.02.27-.04.29-.04.1 0 .15.04.15.11 0 .17-.34.26-1.03.26-.07.02-.11.11-.11.26.05 0 .13 0 .26-.02.12-.01.21-.02.28-.04.06-.01.1 0 .13.02 0 .07-.06.13-.17.17s-.26.08-.44.13-.34.12-.46.22c-.24.22-.51.35-.79.38q-.42.06-.57.09c-.02 0-.24.18-.64.53s-.8.53-1.19.53c-.1 0-.27-.04-.51-.13s-.43-.13-.55-.13c-.07 0-.22.04-.44.11s-.4.11-.55.11c-.27 0-.51-.1-.73-.31s-.34-.32-.37-.35c-.02 0-.14-.03-.35-.09q-.315-.09-.51-.18c-.195-.09-.2-.13-.2-.2 0-.05.02-.07.07-.07q.105 0 .33.09c.15.06.24.09.29.09s.07-.02.07-.07c0-.07-.21-.16-.62-.26-.42-.1-.62-.2-.62-.29 0-.05.04-.07.11-.07.1 0 .26.02.48.07l.33.11c.12 0 .18-.01.18-.04 0-.15-.09-.22-.26-.22-1-.17-1.5-.35-1.5-.55 0-.07.04-.11.11-.11s.3.07.68.22.62.22.72.22c.07 0 .11-.02.11-.07 0-.07-.09-.15-.27-.22s-.42-.16-.7-.26-.51-.2-.68-.29c-.46-.29-.93-.67-1.39-1.14-.46-.46-.7-.76-.7-.88 0-.1.04-.15.11-.15.05 0 .31.21.77.64s.77.64.92.64c.05 0 .07-.04.07-.11 0-.05-.08-.13-.24-.26a8 8 0 0 1-.6-.51c-.24-.22-.45-.45-.62-.7-.07-.1-.12-.18-.13-.26a.5.5 0 0 1 0-.18c.01-.05.03-.07.06-.07q.075 0 .75.75c.675.75.75.75.9.75.05 0 .07-.02.07-.07s-.27-.38-.81-.99-.81-1-.81-1.17c0-.07.02-.11.07-.11s.32.29.82.86.84.86 1.01.86l.04-.07s-.29-.37-.88-1.03-.88-1.12-.88-1.39c0-.05.01-.07.04-.07.07 0 .38.35.92 1.05s.87 1.04.99 1.04c.07 0 .11-.02.11-.07 0-.07-.14-.29-.42-.64s-.59-.73-.92-1.14c-.33-.4-.54-.68-.64-.82-.15-.24-.13-.37.04-.37.05 0 .34.34.88 1.03.54.68.88 1.03 1.03 1.03.05 0 .07-.01.07-.04Zm.81 1.91c-.2 0-.4.08-.62.24s-.33.43-.33.82c0 .1.02.2.05.29.04.1.13.2.29.31s.36.17.6.17c.68 0 1.03-.28 1.03-.84 0-.27-.1-.5-.31-.7a1 1 0 0 0-.71-.29m.04.55c.24 0 .37.15.37.44 0 .2-.13.29-.4.29-.24 0-.37-.1-.37-.29 0-.29.13-.44.4-.44m1.8-1.94c0-.27-.1-.51-.29-.72-.2-.21-.42-.31-.66-.31q-.48 0-.81.27t-.33.75c0 .64.35.95 1.06.95.27 0 .51-.1.71-.29.21-.2.31-.42.31-.66Zm-1.43 0c0-.1.05-.2.15-.29.1-.1.2-.15.29-.15s.19.05.27.15c.09.1.13.2.13.29 0 .22-.15.33-.44.33-.27 0-.4-.11-.4-.33m2.35 4.55c0-.64-.31-.95-.92-.95s-.88.26-.88.77c0 .24.09.46.28.66.18.2.43.29.75.29.51 0 .77-.26.77-.77m-.4-3.3c-.27 0-.49.1-.66.31s-.26.45-.26.71c0 .61.39.92 1.17.92.29 0 .52-.11.68-.33s.24-.43.24-.62q0-.99-1.17-.99m-.84 3.23c0-.24.12-.37.37-.37s.37.13.37.4c0 .2-.11.29-.33.29-.27 0-.4-.11-.4-.33Zm2.13-6.49q0-.255-.24-.51a.8.8 0 0 0-.61-.26c-.71 0-1.06.34-1.06 1.03 0 .2.09.35.28.46.18.11.36.17.53.17.27 0 .52-.1.75-.29.23-.2.35-.39.35-.59Zm-.81 4.29c0 .2-.11.29-.33.29-.27 0-.4-.1-.4-.29 0-.27.12-.4.37-.4s.37.13.37.4Zm-.15-3.89c-.27 0-.4-.12-.4-.37s.16-.37.48-.37q.33 0 .33.33c0 .27-.13.4-.4.4Zm.88 2.68c.07 0 .18-.02.31-.05.13-.04.29-.15.46-.33s.26-.42.26-.72c0-.32-.09-.54-.27-.68-.18-.13-.36-.2-.53-.2-.22 0-.48.07-.77.22s-.44.39-.44.73c0 .27.1.51.29.72.2.21.43.31.7.31Zm.07-1.32c.27 0 .4.12.4.37s-.13.37-.4.37-.4-.12-.4-.37.13-.37.4-.37m1.47 4.69c0-.27-.12-.46-.35-.59-.23-.12-.46-.18-.68-.18-.54 0-.81.34-.81 1.03q0 .81.81.81c.12 0 .24-.02.37-.06.12-.04.26-.14.42-.31s.24-.4.24-.7m-.88-.15c.22 0 .33.1.33.29 0 .29-.12.44-.37.44-.22 0-.33-.13-.33-.4 0-.22.12-.33.37-.33m-.33-2.31c0 .27.1.48.29.62.2.15.42.22.66.22.61 0 .92-.28.92-.84 0-.22-.08-.42-.24-.61a.77.77 0 0 0-.6-.27c-.32 0-.57.09-.75.26s-.28.38-.28.62m1.21-3.12c.17 0 .37-.07.61-.22.23-.15.35-.38.35-.7 0-.51-.27-.77-.81-.77q-.99 0-.99.84c0 .27.08.48.24.62.16.15.36.22.6.22Zm-.22 2.75c.24 0 .37.15.37.44 0 .22-.13.33-.4.33-.22 0-.33-.12-.33-.37 0-.27.12-.4.37-.4Zm.26-3.23q-.33 0-.33-.33c0-.27.12-.4.37-.4s.37.11.37.33c0 .27-.13.4-.4.4Zm.26 5.28q0 .255.33.48c.22.15.4.22.55.22q.33 0 .6-.24c.18-.16.27-.32.27-.49 0-.22-.09-.42-.27-.61a.9.9 0 0 0-.64-.28c-.22 0-.42.1-.59.29-.17.2-.26.4-.26.62Zm.18-4.03c0 .56.29.84.88.84.24 0 .47-.08.68-.24s.31-.36.31-.6c0-.59-.28-.88-.84-.88-.29 0-.54.09-.73.28-.2.18-.29.38-.29.6Zm1.03 3.92c0 .07-.04.15-.11.22s-.13.11-.18.11c-.24 0-.37-.09-.37-.26 0-.27.11-.4.33-.4s.33.11.33.33m-.37-3.89c0-.27.12-.4.37-.4.22 0 .33.12.33.37s-.13.37-.4.37c-.2 0-.29-.11-.29-.33Zm.88 2.86q.99 0 .99-.81a.98.98 0 0 0-.22-.62c-.15-.2-.35-.29-.62-.29-.2 0-.4.07-.62.22q-.33.225-.33.66c0 .22.07.42.22.59s.34.26.59.26Zm.15-.44c-.29 0-.44-.11-.44-.33 0-.12.05-.23.15-.31.1-.09.2-.13.29-.13.2 0 .29.13.29.4 0 .24-.1.37-.29.37" style="fill:#231815"/><path d="M10.76 20.11c-.2 0-.49-.04-.88-.11s-.67-.11-.84-.11c-.12 0-.37.07-.73.22-.37.15-.66.22-.88.22-.12 0-.38-.03-.77-.09s-.67-.09-.84-.09c-1.44 0-2.71.21-3.81.62-.05-.1-.07-.24-.07-.44 0-1.03.34-1.91 1.03-2.66.68-.75 1.37-1.12 2.05-1.12.2 0 .42.04.66.11s.38.11.4.11c.1 0 .15-.04.15-.11 0-.02-.03-.08-.09-.17s-.09-.14-.09-.16c0-.12.02-.18.07-.18s.11.05.18.15.14.26.2.49q.09.345.09.75c0 .12 0 .34-.02.66-.01.32-.02.51-.02.59 0 .83.26 1.25.77 1.25.17 0 .46-.08.88-.24.41-.16.76-.24 1.03-.24.07 0 .16 0 .26.02.1.01.17.02.22.02.39 0 .59-.27.59-.81 0-.17-.1-.34-.31-.5q-.315-.24-.6-.24c-.24 0-.53.21-.86.62-.33.42-.6.62-.83.62-.39 0-.59-.29-.59-.88 0-.24.07-.59.2-1.03s.2-.77.2-.99c0-.29-.07-.51-.2-.64a.86.86 0 0 0-.42-.24c-.15-.02-.22-.05-.22-.07 0-.05.07-.07.22-.07q.36 0 .66.39c.3.39.32.39.37.39s.15-.11.29-.33c.15-.22.37-.43.66-.64s.65-.31 1.06-.31c.49 0 .89.23 1.21.68s.49.68.51.68l.55-.15c.37-.12.82-.18 1.36-.18q1.095 0 2.31 1.14c.81.76 1.21 1.7 1.21 2.82l-.11.62s-.5-.07-1.36-.22-1.55-.22-2.09-.22c-.86 0-1.49.01-1.91.04-.42.02-.7.04-.84.04Zm-6.89-.29c0-.1-.15-.15-.44-.15-.22 0-.41.02-.57.07q-.24.075-.33.18t-.09.18q0 .15.15.15c.12 0 .37-.05.73-.17.37-.11.55-.2.55-.27Zm-1.21-.62c0 .1.12.15.37.15.17 0 .37-.04.6-.11s.35-.13.35-.18c0-.12-.15-.18-.44-.18-.59 0-.88.11-.88.33Zm1.06-1.1c-.44 0-.66.07-.66.22q0 .18.66.18c.39 0 .59-.06.59-.18 0-.15-.2-.22-.59-.22m-.11-.48c0 .15.27.22.81.22.17 0 .26-.04.26-.11 0-.2-.21-.29-.62-.29-.29 0-.44.06-.44.18Zm.55-.55c0 .12.23.18.7.18.15 0 .22-.04.22-.11 0-.15-.18-.22-.55-.22-.24 0-.37.05-.37.15m1.98 2.49c-1.25 0-1.87.06-1.87.18q0 .15.48.15c.1 0 .28 0 .55-.02.27-.01.48-.02.62-.02q.48 0 .48-.15c0-.15-.09-.15-.26-.15Zm.11-.4c0-.19-.48-.29-1.43-.29-.29 0-.44.06-.44.18 0 .05.01.08.04.09.02.01.08.02.16.04.09.01.17.02.26.02h.42c.2 0 .38.01.55.04.29.02.44 0 .44-.07Zm-.04-.59c0-.2-.33-.29-.99-.29q-.48 0-.48.18c0 .18.38.18 1.14.18.22 0 .33-.02.33-.07m-1.17-.66s.16.07.48.13.5.09.55.09c.1 0 .15-.01.15-.04 0-.05-.04-.1-.11-.15a1.3 1.3 0 0 0-.33-.15c-.15-.05-.29-.07-.44-.07-.2 0-.29.06-.29.18Zm.26-.55c0 .07.13.15.38.22.26.07.45.11.57.11.05 0 .07-.02.07-.07s-.09-.12-.28-.22c-.18-.1-.36-.15-.53-.15-.15 0-.22.04-.22.11Zm.99-.22c0-.17-.17-.26-.51-.26-.15 0-.22.02-.22.07 0 .07.09.13.26.18s.29.07.37.07.11-.02.11-.07Zm.77-.7c0 .07-.04.11-.11.11s-.16-.07-.26-.22-.15-.27-.15-.37c0-.05.02-.07.07-.07.1 0 .2.07.29.2.1.13.15.25.15.35Zm.84 1.61c0-.15-.09-.22-.26-.22-.2 0-.29.18-.29.55 0 .15.05.22.15.22.05 0 .13-.07.24-.2s.17-.25.17-.35Zm.44.37c0-.12-.04-.18-.11-.18-.1 0-.21.08-.35.24-.13.16-.2.29-.2.39s.05.15.15.15c.07 0 .18-.07.31-.22s.2-.27.2-.37Zm-.18-.66s.1-.05.17-.15c.06-.1.09-.17.09-.22 0-.2-.09-.29-.26-.29-.29 0-.44.12-.44.37 0 .2.15.29.44.29m.77-1.94c0-.1-.07-.15-.22-.15-.24 0-.37.11-.37.33 0 .12.07.18.22.18.24 0 .37-.12.37-.37Zm-.29 1.25c.17 0 .26-.1.26-.29 0-.17-.09-.26-.26-.26-.2 0-.29.1-.29.29 0 .17.1.26.29.26m.07.48s-.1.04-.16.11-.09.13-.09.18c0 .17.09.26.26.26s.26-.11.26-.33c0-.15-.09-.22-.26-.22Zm.48-2.35c-.2 0-.29.07-.29.22s.1.22.29.22c.05.02.1.02.15-.02s.07-.09.07-.16c0-.17-.07-.26-.22-.26m0 1.36c.17 0 .26-.09.26-.26s-.09-.26-.26-.26-.26.09-.26.26.09.26.26.26m.33.73c0-.2-.09-.29-.26-.29-.22 0-.33.09-.33.26 0 .2.1.29.29.29s.29-.09.29-.26Zm.18-.84c-.2 0-.29.1-.29.29-.02.07 0 .14.09.2s.15.09.2.09c.2 0 .29-.09.29-.26 0-.22-.1-.33-.29-.33Zm-.04-.37c.22 0 .33-.1.33-.29 0-.15-.09-.22-.26-.22-.2 0-.29.1-.29.29 0 .15.07.22.22.22m.07-1.06c-.17 0-.26.06-.26.18s.09.18.26.18c.15 0 .22-.06.22-.18s-.07-.18-.22-.18m1.06 4.84c.15 0 .59-.06 1.34-.17s1.44-.16 2.07-.16q.51 0 .51-.15c0-.2-.23-.29-.7-.29-.27 0-.68.05-1.25.15-.56.1-.9.15-1.03.15-.1 0-.15-.01-.15-.04 0-.12.32-.25.95-.39.64-.13 1.09-.2 1.36-.2s.4-.06.4-.18-.12-.18-.37-.18-.62.06-1.12.18q-.75.18-.93.18c-.07 0-.11-.02-.11-.07 0-.17.56-.34 1.69-.51.27-.02.4-.1.4-.22 0-.07-.07-.11-.22-.11-.17 0-.48.07-.93.2s-.71.2-.79.2c-.15 0-.13-.06.04-.18.05-.05.1-.09.15-.11.15-.05.31-.1.48-.17.17-.06.3-.1.38-.13.09-.02.17-.05.26-.07s.14-.06.16-.09c.02-.04.04-.07.04-.09 0-.07-.06-.11-.18-.11-.15 0-.4.07-.75.2s-.56.2-.6.2c-.07 0-.11-.01-.11-.04 0-.07.23-.21.68-.42s.68-.34.68-.38c0-.07-.05-.11-.15-.11-.07 0-.28.09-.62.27s-.56.28-.66.28c-.05 0-.07-.02-.07-.07 0-.1.2-.25.6-.46q.6-.315.6-.42c0-.05-.05-.07-.15-.07-.17 0-.39.07-.64.2-.26.13-.47.26-.64.39l-.29.18q-.15 0-.15-.15c0-.02.04-.1.13-.24.09-.13.13-.23.13-.28 0-.1-.07-.15-.22-.15s-.42.22-.81.66-.59.7-.59.77c0 .02.17.14.49.35.33.21.5.51.5.9 0 .37-.11.66-.33.88.2.05.37.07.51.07Zm-.22-3.67c0-.15-.11-.22-.33-.22-.05 0-.11.04-.18.11s-.11.15-.11.22c0 .15.1.22.29.22.07 0 .15-.04.22-.11s.11-.15.11-.22m-.22-1.06c-.17 0-.26.1-.26.29 0 .12.07.18.22.18.22 0 .33-.09.33-.26 0-.15-.1-.22-.29-.22Zm.66.66q0-.18-.18-.18c-.15 0-.22.06-.22.18 0 .15.06.22.18.22.15 0 .22-.07.22-.22m1.17-.7q1.02-1.14 2.13-1.83c.73-.46 1.3-.7 1.69-.7.15 0 .22.05.22.15 0 .05-.02.09-.07.11-.12.1-.38.24-.77.42s-.65.31-.77.39c-.49.32-.93.62-1.34.92-.4.29-.68.5-.84.6-.16.11-.26.16-.31.16-.1 0-.07-.07.07-.22Zm1.25 1.54q0 .15.15.15c.64 0 .95-.09.95-.26 0-.1-.1-.15-.29-.15-.12 0-.29.03-.5.09s-.31.12-.31.16Zm.04-1.58s.14-.14.42-.35.62-.42 1.03-.62c.4-.21.71-.31.94-.31s.33.04.33.11-.82.45-2.46 1.14c-.2.1-.28.11-.26.04Zm1.39 1.91c-.56 0-.84.1-.84.29 0 .07.07.11.22.11.07 0 .21 0 .4-.02.2-.01.32-.02.37-.02.15 0 .22-.05.22-.15 0-.15-.12-.22-.37-.22Zm-.73-1.54s.08-.08.24-.17.36-.16.6-.24c.24-.07.45-.11.62-.11.22 0 .37.07.44.22.02.05.01.08-.04.09s-.16.02-.33.02q-.405.03-.75.09c-.23.04-.4.07-.5.09s-.16.04-.18.04c-.07 0-.11-.01-.11-.04Zm.37 2.49c0 .1.32.15.95.15.22 0 .33-.04.33-.11 0-.15-.2-.22-.59-.22-.46 0-.7.06-.7.18Zm1.83.84c0-.22-.32-.33-.95-.33-.2 0-.33.01-.4.04-.07.02-.1.07-.07.15 0 .07.18.14.53.2s.58.09.68.09c.15 0 .22-.05.22-.15Zm-.22.59c-.2-.05-.4-.07-.62-.07s-.33.04-.33.11c0 .22.38.37 1.14.44.12.02.18-.01.18-.11 0-.2-.12-.32-.37-.37" style="fill:#005529"/></svg>