<svg xmlns="http://www.w3.org/2000/svg" viewBox="0 0 19 26"><defs><style>.cls-1{fill:#011833}.cls-2{fill:#881c21}</style></defs><path d="M9.5 9.5C7.57 9.5 6 11.07 6 13s1.57 3.5 3.5 3.5S13 14.93 13 13s-1.57-3.5-3.5-3.5m0 .29c1.08 0 1.35.33 1.28.91s-.7 1.22-.86 1.22h-.11l.23-.85h-.03l-.23.84c-.08 0-.15-.03-.27-.03v-1.15h-.03v1.15c-.12 0-.19.03-.27.03l-.23-.85h-.03l.23.85h-.11c-.16 0-.79-.64-.86-1.22s.21-.91 1.28-.91ZM6.45 12c.33-1.02.73-1.18 1.26-.94s.94 1.04.89 1.19c-.01.04-.03.07-.04.1l-.73-.48v.03l.72.48c-.03.07-.08.13-.12.25l-1.09-.36v.03l1.08.36c-.04.12-.04.19-.05.27l-.88-.04v.03l.87.04c0 .03-.02.07-.03.11-.05.15-.85.55-1.42.44-.57-.12-.8-.48-.47-1.5Zm2.74 3.6c-.29.51-.7.61-1.57-.02s-.9-1.06-.51-1.49 1.28-.57 1.41-.48c.03.02.06.05.08.07l-.68.55.02.02.68-.55c.06.05.1.12.2.19l-.68.93.03.02.68-.93c.1.07.17.09.24.13l-.31.82.03.02.31-.82.09.06c.13.09.26.98-.02 1.49Zm-.56-2.61a.87.87 0 1 1 1.741.001.87.87 0 0 1-1.741-.001m2.76 2.59c-.87.63-1.29.53-1.57.02-.29-.51-.15-1.4-.02-1.49l.09-.06.31.82.03-.02-.31-.82c.07-.04.14-.06.24-.13l.68.93.03-.02-.68-.93c.1-.07.14-.14.2-.19l.69.55.02-.02-.68-.55s.05-.04.08-.07c.13-.09 1.01.05 1.41.48.39.43.37.86-.51 1.49Zm.7-2.08c-.57.12-1.37-.29-1.42-.44l-.03-.11.88-.04v-.03l-.88.04c-.02-.08-.01-.15-.05-.27l1.09-.36v-.03l-1.1.36c-.04-.11-.09-.18-.12-.25l.74-.48v-.03l-.75.48c-.01-.03-.03-.06-.04-.1-.05-.15.36-.95.89-1.19s.93-.08 1.26.94.1 1.39-.47 1.5Z" class="cls-2"/><path d="M9.5 12.55c-.25 0-.45.2-.45.45s.2.45.45.45.45-.2.45-.45-.2-.45-.45-.45" class="cls-2"/><path d="M9.5 6.15c-3.78 0-6.85 3.07-6.85 6.85s3.07 6.85 6.85 6.85 6.85-3.07 6.85-6.85-3.07-6.85-6.85-6.85m6.34 4.99c.06.21-.29.64-.65.74-.32.09-1.48.3-1.55.32-.06.01-.11-.03-.14-.13-.03-.11 0-.17.05-.18s1.23-.36 1.33-.39.18-.1.17-.12c0-.03-.11-.04-.21-.01s-1.28.38-1.33.39-.1-.02-.14-.13c-.03-.1-.01-.16.04-.19s1.15-.47 1.47-.57c.36-.11.89.06.95.27Zm-.78-1.71c.12.19-.1.7-.41.9-.28.18-1.34.71-1.39.74-.06.03-.11 0-.17-.09-.06-.1-.05-.16 0-.19s1.08-.69 1.17-.75.15-.15.13-.17-.12 0-.21.05-1.12.72-1.17.75c-.04.03-.1.01-.17-.08-.06-.09-.06-.15 0-.19.05-.04.97-.78 1.25-.96.32-.21.87-.19.99 0Zm-1.23-1.42c.17.15.1.69-.14.98-.22.25-1.08 1.06-1.13 1.1s-.11.03-.19-.04c-.09-.08-.09-.14-.06-.18s.84-.97.91-1.05.1-.18.08-.2-.12.03-.19.11-.87 1.01-.91 1.05c-.03.04-.1.04-.18-.03q-.12-.105-.06-.18c.04-.05.71-1.02.93-1.28.24-.29.78-.43.95-.28Zm-2.41-.48c.15-.34.63-.63.83-.54s.3.64.14.98c-.14.3-.74 1.32-.77 1.37-.03.06-.09.06-.19.02-.11-.05-.13-.11-.11-.15.02-.05.53-1.17.58-1.26.04-.1.04-.2.02-.21s-.1.06-.15.15-.56 1.22-.58 1.26c-.02.05-.08.07-.19.02-.1-.04-.13-.1-.11-.16s.39-1.18.53-1.49ZM9.8 7.21c.05-.37.42-.78.64-.75s.46.53.41.9c-.05.33-.34 1.48-.36 1.54-.01.06-.07.09-.18.07s-.15-.07-.15-.12.18-1.27.2-1.37c.01-.1-.01-.2-.04-.21-.03 0-.08.08-.1.19s-.19 1.32-.2 1.37-.06.09-.17.07c-.1-.02-.15-.05-.15-.12 0-.06.05-1.24.09-1.57Zm-1.24-.75c.22-.03.59.38.64.75.05.33.09 1.51.09 1.57q0 .09-.15.12c-.11.02-.17-.02-.17-.07s-.18-1.27-.2-1.37c-.01-.1-.07-.19-.1-.19s-.06.1-.04.21c.01.1.19 1.32.2 1.37s-.03.1-.15.12c-.1.02-.16 0-.18-.07-.01-.06-.31-1.21-.36-1.54-.06-.37.19-.87.41-.9Zm-1.8.53c.2-.09.67.19.83.54.14.31.51 1.43.53 1.49s-.02.11-.11.16c-.11.05-.16.03-.19-.02-.02-.05-.53-1.17-.58-1.26-.04-.1-.12-.16-.15-.15s-.03.12.02.21c.04.1.55 1.22.58 1.26.02.05 0 .11-.11.15-.1.04-.16.04-.19-.02s-.63-1.07-.77-1.37c-.16-.34-.07-.89.14-.98ZM5.18 8.01c.17-.15.7 0 .95.28.22.25.89 1.22.93 1.28q.06.075-.06.18c-.09.08-.15.07-.18.03s-.84-.97-.91-1.05-.16-.12-.19-.11c-.02.02 0 .12.08.2.07.08.87 1.01.91 1.05.03.04.03.1-.06.18-.08.07-.14.08-.19.04s-.91-.85-1.13-1.1c-.25-.28-.31-.83-.14-.98ZM3.95 9.43c.12-.19.67-.2.99 0 .28.18 1.2.92 1.25.96s.05.1 0 .19c-.06.1-.12.11-.17.08-.04-.03-1.08-.69-1.17-.75s-.19-.07-.21-.05c-.01.02.04.11.13.17s1.12.72 1.17.75c.04.03.06.09 0 .19-.06.09-.11.12-.17.09s-1.11-.56-1.39-.74c-.32-.2-.53-.71-.41-.9Zm.17 1.43c.32.1 1.41.55 1.47.57s.07.08.04.19-.09.14-.14.13-1.23-.36-1.33-.39-.2-.01-.21.01c0 .03.07.1.17.12.1.03 1.28.38 1.33.39s.08.07.05.18c-.03.1-.08.15-.14.13-.06-.01-1.22-.22-1.55-.32-.36-.1-.71-.53-.65-.74s.59-.38.95-.27ZM2.9 13c0-.22.46-.53.83-.53.33 0 1.51.13 1.57.13s.1.06.1.17c0 .12-.04.16-.1.16H3.91c-.11 0-.2.04-.2.07s.1.07.2.07H5.3c.05 0 .1.04.1.16 0 .11-.03.16-.1.17-.06 0-1.24.13-1.57.13-.38 0-.83-.31-.83-.53m.27 1.86c-.06-.21.29-.64.65-.74.32-.09 1.48-.3 1.55-.32.06-.01.11.03.14.13.03.11 0 .17-.05.18s-1.23.36-1.33.39-.18.1-.17.12.11.04.21.01 1.28-.38 1.33-.39.1.02.14.13c.03.1.01.16-.04.19-.06.02-1.15.47-1.47.57-.36.11-.89-.06-.95-.27Zm.78 1.71c-.12-.19.1-.7.41-.9.28-.18 1.34-.71 1.39-.74.06-.03.11 0 .17.09.06.1.05.16 0 .19-.04.03-1.08.69-1.17.75s-.15.15-.13.17c.01.02.12 0 .21-.05.09-.06 1.12-.72 1.17-.75.04-.03.1-.01.17.08.06.09.06.15 0 .19-.05.04-.97.78-1.25.96-.32.21-.87.19-.99 0Zm1.23 1.42c-.17-.15-.1-.69.14-.98.22-.25 1.08-1.06 1.13-1.1s.11-.03.19.04c.09.08.09.14.06.18s-.84.97-.91 1.05-.1.18-.08.2.12-.03.19-.11.87-1.01.91-1.05c.03-.04.1-.04.18.03q.12.105.06.18c-.04.05-.71 1.02-.93 1.28-.24.29-.78.43-.95.28Zm2.41.48c-.15.34-.63.63-.83.54s-.3-.64-.14-.98c.14-.3.74-1.32.77-1.37.03-.06.09-.06.19-.02.11.05.13.11.11.15-.02.05-.53 1.17-.58 1.26s-.04.2-.02.21c.03.01.1-.06.15-.15.04-.1.56-1.22.58-1.26.02-.05.08-.07.19-.02.1.04.13.1.11.16s-.39 1.18-.53 1.49Zm1.62.32c-.05.37-.42.78-.64.75s-.46-.53-.41-.9c.05-.33.34-1.48.36-1.54.01-.06.07-.09.18-.07s.15.07.15.12-.18 1.27-.2 1.37c-.01.1.01.2.04.21.03 0 .08-.08.1-.19.01-.1.19-1.32.2-1.37s.06-.09.17-.07q.15.015.15.12c0 .06-.05 1.24-.09 1.58ZM5.81 13c0-2.04 1.66-3.7 3.7-3.7s3.7 1.66 3.7 3.7-1.66 3.7-3.7 3.7-3.7-1.66-3.7-3.7m4.64 6.54c-.22.03-.59-.38-.64-.75-.05-.33-.09-1.51-.09-1.58q0-.09.15-.12c.11-.02.17.02.17.07s.18 1.27.2 1.37.07.19.1.19.06-.1.04-.21c-.02-.1-.19-1.32-.2-1.37 0-.05.03-.1.15-.12.1-.02.16 0 .18.07.01.06.31 1.21.36 1.54.06.37-.19.87-.41.9Zm1.8-.53c-.2.09-.67-.19-.83-.54-.14-.31-.51-1.43-.53-1.49s.02-.11.11-.16c.11-.05.16-.03.19.02.02.05.53 1.17.58 1.26.04.1.12.16.15.15s.03-.12-.02-.21c-.04-.1-.55-1.22-.58-1.26-.02-.05 0-.11.11-.15.1-.04.16-.04.19.02s.63 1.07.77 1.37c.16.34.07.89-.14.98Zm1.58-1.02c-.17.15-.7 0-.95-.28-.22-.25-.89-1.22-.93-1.28q-.06-.075.06-.18c.09-.08.15-.07.18-.03s.84.97.91 1.05.16.12.19.11c.02-.02 0-.12-.08-.2-.07-.08-.87-1.01-.91-1.05s-.03-.1.06-.18c.08-.07.14-.08.19-.04s.91.85 1.13 1.1c.25.28.31.83.14.98Zm1.23-1.42c-.12.19-.67.2-.99 0-.28-.18-1.2-.92-1.25-.96s-.05-.1 0-.19c.06-.1.12-.11.17-.08.04.03 1.08.69 1.17.75s.19.07.21.05-.04-.11-.13-.17-1.12-.72-1.17-.75c-.04-.03-.06-.09 0-.19.06-.09.11-.12.17-.09s1.11.56 1.39.74c.32.2.53.71.41.9Zm-.17-1.43c-.32-.1-1.41-.55-1.47-.57s-.07-.08-.04-.19.09-.14.14-.13 1.23.36 1.33.39.2.01.21-.01c0-.03-.07-.1-.17-.12s-1.28-.38-1.33-.39-.08-.07-.05-.18c.03-.1.08-.15.14-.13.06.01 1.22.22 1.55.32.36.1.71.53.65.74s-.59.38-.95.27Zm.38-1.6c-.34 0-1.51-.13-1.57-.13s-.1-.06-.1-.17c0-.12.04-.16.1-.16h1.39c.11 0 .2-.04.2-.07s-.1-.07-.2-.07H13.7c-.05 0-.1-.04-.1-.16 0-.11.03-.16.1-.17s1.24-.13 1.57-.13c.38 0 .83.31.83.53s-.46.53-.83.53" class="cls-1"/><path d="M9.5 5.5C5.36 5.5 2 8.86 2 13s3.36 7.5 7.5 7.5S17 17.14 17 13s-3.36-7.5-7.5-7.5m0 14.6c-3.91 0-7.1-3.18-7.1-7.1s3.19-7.1 7.1-7.1 7.1 3.18 7.1 7.1-3.18 7.1-7.1 7.1" class="cls-1"/></svg>