<svg xmlns="http://www.w3.org/2000/svg" viewBox="0 0 19 26"><path d="M4.16 10.73c.05-.12.14-.18.28-.18q.135 0 .93.36c1.16-.24 2.22-.5 3.17-.78-.02-.14-.04-.4-.04-.78-.07 0-.25.04-.53.11s-.52.11-.71.11c-.45 0-.75-.17-.89-.5.09-.02.39-.07.87-.12.49-.06.88-.15 1.19-.27v-.11c0-.83-.21-1.55-.64-2.17s-.64-1.26-.64-1.92c.66.31 1.34.55 2.03.73s1.13.32 1.32.41c.19.1.28.29.28.57 0 .14-.07.25-.2.32s-.27.14-.43.2c-.15.06-.31.23-.46.52-.15.28-.26.68-.3 1.18.36-.09.63-.23.82-.41s.33-.27.43-.27c.21 0 .44.08.69.23s.37.29.37.41-.1.21-.3.28-.52.15-.96.23-.8.17-1.09.27c0 .09-.01.24-.04.43-.02.19-.04.32-.04.39l3.03-.53c.21 0 .51.21.89.62q.57.63.57 1.05c0 .24-.26.39-.78.46q-.255.675-.78 1.35c-.36.45-.53.78-.53 1 0 .38-.11.57-.32.57-.14 0-.32-.08-.53-.25-.31.02-.55.07-.71.14q.96 1.215 2.37 1.89t2.58 1.14c.78.31 1.33.7 1.64 1.18-.36-.05-.72-.15-1.09-.32s-.62-.25-.77-.25c-.1 0-.33.11-.71.34s-.7.34-.96.34c-.33 0-.67-.17-1-.52-.33-.34-.78-.95-1.34-1.82s-.99-1.5-1.3-1.91c-.05.02-.14.04-.28.04 0 .26-.01.59-.04 1-.02.4-.04.71-.04.93q0 1.005.27 2.58c.18 1.06.27 1.64.27 1.76 0 1.09-.23 1.64-.68 1.64-.26 0-.51-.33-.75-1-.24-.66-.36-1.26-.36-1.78 0-.24-.58-1.15-1.75-2.74-1.28 1.05-2.29 1.57-3.03 1.57-.4 0-.69-.04-.85-.11 1.59-.81 2.75-1.52 3.49-2.14l-.14-.46.32.25q.645-.54 1.14-1.53c-.24-.02-.46-.17-.68-.43-.02-.02-.02-.07.02-.12.04-.06.05-.1.05-.12 0-.05-.17-.27-.52-.68-.34-.4-.71-.85-1.1-1.34s-.64-.83-.73-1.02Zm4.38-.14c-.97.19-1.86.46-2.67.82.4.4.64.67.71.78.21-.12.55-.21 1.01-.27s.79-.11.98-.16c0-.12 0-.31-.02-.57-.01-.26-.02-.46-.02-.61Zm.07 3.92s-.14 0-.27-.02c-.13-.01-.23-.02-.3-.02-.28.5-.8 1.2-1.53 2.1.12.12.29.32.52.61.23.28.43.5.61.66.18.15.33.23.44.23.21 0 .39-1.19.53-3.56m-.04-2.07c-.81.05-1.34.14-1.6.29.17.38.37.69.61.93.12.02.3.04.53.05.24.01.4.02.5.02 0-.17 0-.39-.02-.68-.01-.28-.02-.49-.02-.61m3.42-1.92c0-.19-.28-.28-.85-.28s-1.19.08-1.85.25c-.02.17-.04.39-.05.66s-.02.46-.02.55c.33-.05.6-.14.8-.28q.3-.21.69-.21c.09 0 .18.02.27.07.08.05.18.12.28.21.11.09.2.17.27.21.31-.55.46-.94.46-1.18m-.71 1.67c-.19-.09-.32-.14-.39-.14-.12 0-.38.05-.78.14s-.69.15-.85.18c-.02.12-.04.32-.04.61s.01.51.04.68q.54 0 1.32-.18c.07-.09.19-.3.36-.62s.28-.54.36-.66Z" style="fill:#231815"/></svg>