<svg xmlns="http://www.w3.org/2000/svg" viewBox="0 0 19 26"><path d="M8.93 4.47c.47.19.94.58 1.39 1.18.45.59.68 1.06.68 1.39 0 .14-.04.27-.12.37-.08.11-.18.21-.28.3-.11.1-.22.31-.34.64s-.2.76-.25 1.28c.31-.09.71-.24 1.21-.44s.91-.36 1.25-.48q.495-.18.75-.18c.19 0 .45.21.78.64.07.1.23.26.46.5.24.24.4.41.48.52s.17.25.27.43c.09.18.14.34.14.48 0 .21-.1.32-.29.32-.45 0-.78.08-1 .25q-.255.39-.66.93c-.27.36-.49.64-.66.85s-.25.37-.25.46c0 .43-.17.64-.5.64-.12 0-.36-.04-.73-.11s-.84-.12-1.41-.14c0 .21-.01.72-.04 1.51-.02.8-.04 1.24-.04 1.34 0 .17.02.62.07 1.35.05.74.07 1.23.07 1.5 0 .62-.08 1.23-.25 1.85s-.34 1.02-.53 1.21c-.28-.24-.43-1.15-.43-2.74 0-.17.01-.52.04-1.07.02-.55.04-1.04.04-1.5 0-.26-.01-.8-.04-1.62-.02-.82-.04-1.42-.04-1.8-.19 0-.51.08-.96.23s-.82.23-1.1.23c-.19 0-.29-.18-.29-.53q0-.315-1.35-1.5c-.9-.78-1.35-1.38-1.35-1.78 0-.59.09-1 .28-1.21.19.12.42.3.69.53.27.24.51.43.71.57s.37.21.52.21.63-.15 1.46-.46 1.29-.51 1.39-.61v-.53c0-.28 0-.49-.02-.62-.01-.13-.03-.32-.05-.57s-.06-.44-.11-.57-.1-.27-.16-.43a.8.8 0 0 0-.27-.36.7.7 0 0 0-.39-.12c0-.05-.02-.14-.07-.27a.9.9 0 0 1-.07-.3c0-.55.45-1.14 1.35-1.78Zm-2.64 7.16c.52.74.95 1.45 1.28 2.14q.57-.075 1.14-.21v-2.67c-.21.07-.48.18-.8.34-.32.15-.59.27-.82.36-.23.08-.4.12-.52.12-.1 0-.19-.02-.28-.07Zm3.7-1.17c-.09 1.14-.14 2.14-.14 2.99.09 0 .26 0 .5.02.24.01.45.02.64.02.07-.09.21-.29.43-.59.21-.3.38-.53.5-.71s.25-.39.41-.64c.15-.25.27-.48.34-.68s.11-.37.11-.52c0-.28-.19-.43-.57-.43-.52 0-1.26.18-2.21.53Z" style="fill:#881c21"/></svg>