<svg xmlns="http://www.w3.org/2000/svg" viewBox="0 0 19 26"><defs><style>.cls-1{fill:#011833}</style></defs><path d="M9.5 4.03c-2.1 0-3.81 1.7-3.81 3.81s1.7 3.81 3.81 3.81 3.81-1.7 3.81-3.81-1.7-3.81-3.81-3.81m.35 1.1c.23-.46.48-.51.76-.46.16.02.35.09.59.23s.39.27.49.4c.18.22.26.46-.02.89-.25.38-1.07.79-1.22.78s-.26-.13-.17-.27l.43-.75c.06 0 .12-.04.16-.1.05-.09.03-.21-.06-.26a.19.19 0 0 0-.26.08c-.03.06-.04.13 0 .18l-.43.75c-.08.14-.24.11-.32-.02-.09-.12-.14-1.04.07-1.45Zm-2.54.16c.1-.13.25-.26.5-.4.24-.14.43-.2.59-.23.28-.04.53 0 .76.46.2.41.15 1.32.07 1.45-.09.12-.24.16-.32.02l-.43-.75c.03-.06.03-.13 0-.18-.05-.09-.17-.13-.26-.08s-.12.17-.06.26c.03.06.09.1.16.1l.43.75c.08.14-.02.26-.17.27s-.97-.4-1.22-.78c-.28-.43-.2-.67-.02-.89ZM6.2 8.46c-.06-.15-.1-.35-.1-.63s.04-.47.1-.63c.1-.27.27-.46.78-.43.46.03 1.22.53 1.29.67.06.14.01.29-.15.29h-.87c-.04-.05-.1-.09-.16-.09-.11 0-.2.08-.2.19 0 .1.09.19.2.19.07 0 .13-.03.16-.09h.87c.16 0 .21.15.15.29s-.83.64-1.29.67c-.51.03-.68-.16-.78-.43m2.96 2.08c-.23.46-.48.51-.76.46-.16-.02-.35-.09-.59-.23s-.39-.27-.49-.4c-.18-.22-.26-.46.02-.89.25-.38 1.07-.79 1.22-.78s.26.13.17.27l-.43.75c-.06 0-.12.04-.16.1-.05.09-.03.21.06.26s.21.02.26-.08c.03-.06.04-.13 0-.18l.43-.75c.08-.14.24-.11.32.02.09.12.14 1.04-.07 1.45Zm-.51-2.71c0-.47.38-.86.86-.86s.86.38.86.86-.38.86-.86.86-.86-.38-.86-.86m3.05 2.55c-.1.13-.25.26-.5.4-.24.14-.43.2-.59.23-.28.04-.53 0-.76-.46-.2-.41-.15-1.32-.07-1.45s.24-.16.32-.02l.43.75c-.03.06-.03.13 0 .18.05.09.17.13.26.08s.12-.17.06-.26a.18.18 0 0 0-.16-.1l-.43-.75c-.08-.14.02-.26.17-.27s.97.4 1.22.78c.28.43.2.67.02.89Zm.32-1.49c-.46-.03-1.22-.53-1.29-.67-.06-.14-.01-.29.15-.29h.87c.04.05.1.09.16.09.11 0 .2-.08.2-.19 0-.1-.09-.19-.2-.19-.07 0-.13.03-.16.09h-.87c-.16 0-.21-.15-.15-.29s.83-.64 1.29-.67c.51-.03.68.16.78.43.06.15.1.35.1.63s-.04.47-.1.63c-.1.27-.27.46-.78.43" class="cls-1"/><path d="M9.5 7.43c-.23 0-.41.18-.41.41s.18.41.41.41.41-.18.41-.41-.18-.41-.41-.41" class="cls-1"/><path d="M9.5 3.28c-2.51 0-4.55 2.04-4.55 4.55s2.04 4.55 4.55 4.55 4.55-2.04 4.55-4.55-2.04-4.55-4.55-4.55m0 8.64c-2.26 0-4.09-1.83-4.09-4.09S7.24 3.74 9.5 3.74s4.09 1.83 4.09 4.09-1.83 4.09-4.09 4.09m0 5.84c-.23 0-.41.18-.41.41s.18.41.41.41.41-.18.41-.41-.18-.41-.41-.41" class="cls-1"/><path d="M9.5 14.36c-2.1 0-3.81 1.7-3.81 3.81s1.7 3.81 3.81 3.81 3.81-1.7 3.81-3.81-1.7-3.81-3.81-3.81m.35 1.1c.23-.46.48-.51.76-.46.16.02.35.09.59.23s.39.27.49.4c.18.22.26.46-.02.89-.25.38-1.07.79-1.22.78s-.26-.13-.17-.27l.43-.75c.06 0 .12-.04.16-.1.05-.09.03-.21-.06-.26a.19.19 0 0 0-.26.08c-.03.06-.04.13 0 .18l-.43.75c-.08.14-.24.11-.32-.02-.09-.12-.14-1.04.07-1.45Zm-2.54.16c.1-.13.25-.26.5-.4.24-.14.43-.2.59-.23.28-.04.53 0 .76.46.2.41.15 1.32.07 1.45-.09.12-.24.16-.32.02l-.43-.75c.03-.06.03-.13 0-.18-.05-.09-.17-.13-.26-.08s-.12.17-.06.26c.03.06.09.1.16.1l.43.75c.08.14-.02.26-.17.27s-.97-.4-1.22-.78c-.28-.43-.2-.67-.02-.89ZM6.2 18.79c-.06-.15-.1-.35-.1-.63s.04-.47.1-.63c.1-.27.27-.46.78-.43.46.03 1.22.53 1.29.67.06.14.01.29-.15.29h-.87c-.04-.05-.1-.09-.16-.09-.11 0-.2.08-.2.19 0 .1.09.19.2.19.07 0 .13-.03.16-.09h.87c.16 0 .21.15.15.29s-.83.64-1.29.67c-.51.03-.68-.16-.78-.43m2.96 2.08c-.23.46-.48.51-.76.46-.16-.02-.35-.09-.59-.23s-.39-.27-.49-.4c-.18-.22-.26-.46.02-.89.25-.38 1.07-.79 1.22-.78s.26.13.17.27l-.43.75c-.06 0-.12.04-.16.1-.05.09-.03.21.06.26s.21.02.26-.08c.03-.06.04-.13 0-.18l.43-.75c.08-.14.24-.11.32.02.09.12.14 1.04-.07 1.45Zm-.51-2.71c0-.47.38-.86.86-.86s.86.38.86.86-.38.86-.86.86-.86-.38-.86-.86m3.05 2.55c-.1.13-.25.26-.5.4-.24.14-.43.2-.59.23-.28.04-.53 0-.76-.46-.2-.41-.15-1.32-.07-1.45s.24-.16.32-.02l.43.75c-.03.06-.03.13 0 .18.05.09.17.13.26.08s.12-.17.06-.26a.18.18 0 0 0-.16-.1l-.43-.75c-.08-.14.02-.26.17-.27s.97.4 1.22.78c.28.43.2.67.02.89Zm.32-1.49c-.46-.03-1.22-.53-1.29-.67-.06-.14-.01-.29.15-.29h.87c.04.05.1.09.16.09.11 0 .2-.08.2-.19 0-.1-.09-.19-.2-.19-.07 0-.13.03-.16.09h-.87c-.16 0-.21-.15-.15-.29s.83-.64 1.29-.67c.51-.03.68.16.78.43.06.15.1.35.1.63s-.04.47-.1.63c-.1.27-.27.46-.78.43" class="cls-1"/><path d="M9.5 13.62c-2.51 0-4.55 2.04-4.55 4.55s2.04 4.55 4.55 4.55 4.55-2.04 4.55-4.55-2.04-4.55-4.55-4.55m0 8.64c-2.26 0-4.09-1.83-4.09-4.09s1.83-4.09 4.09-4.09 4.09 1.83 4.09 4.09-1.83 4.09-4.09 4.09" class="cls-1"/></svg>