<svg xmlns="http://www.w3.org/2000/svg" viewBox="0 0 19 26"><defs><style>.cls-1{fill:#011833}.cls-2{fill:#881c21}</style></defs><path d="M5.14 2.98c-1.88 0-3.41 1.53-3.41 3.41S3.26 9.8 5.14 9.8s3.41-1.53 3.41-3.41-1.53-3.41-3.41-3.41m0 6.22c-1.55 0-2.81-1.26-2.81-2.81s1.26-2.81 2.81-2.81 2.81 1.26 2.81 2.81S6.69 9.2 5.14 9.2" class="cls-1"/><path d="M5.14 6.19c-.11 0-.2.09-.2.2s.09.2.2.2.2-.09.2-.2-.09-.2-.2-.2" class="cls-1"/><path d="M5.14 4.19a2.21 2.21 0 1 0 .001 4.421A2.21 2.21 0 0 0 5.14 4.19m-.73.61c.2-.12.47-.18.73-.18s.53.06.73.18c.08.05.1.18.07.27s-.18.32-.24.35-.16.04-.21.03c-.05 0-.22-.07-.35-.07-.12 0-.29.06-.35.07-.05 0-.15 0-.21-.03s-.21-.26-.24-.35-.01-.23.07-.27M3.4 6.59c-.05-.23-.03-.5.05-.75s.22-.48.4-.64c.07-.07.2-.04.28.02s.25.27.26.34-.01.17-.03.21-.14.19-.17.31c-.04.12-.03.3-.04.35 0 .05-.05.14-.1.19s-.31.12-.41.12-.22-.06-.24-.15m1.61 1.34c-.03.09-.12.19-.22.18-.23-.03-.48-.13-.7-.28-.21-.15-.39-.36-.48-.57-.04-.09.03-.2.1-.26.08-.06.33-.16.4-.14.07.01.15.06.19.1s.14.19.24.26.28.12.32.15c.05.02.12.09.15.15s.02.34-.01.43Zm-.47-1.54c0-.33.27-.6.6-.6s.6.27.6.6-.27.6-.6.6-.6-.27-.6-.6m1.64 1.43c-.21.15-.46.26-.7.28-.1.01-.18-.09-.22-.18-.03-.09-.04-.36-.01-.43.03-.06.11-.13.15-.15.05-.02.22-.07.32-.15.1-.07.2-.23.24-.26.04-.04.12-.09.19-.1s.32.08.4.14.15.18.1.26c-.1.21-.27.42-.48.57Zm.46-1.08c-.1 0-.36-.07-.41-.12a.44.44 0 0 1-.1-.19c0-.05 0-.23-.04-.35s-.15-.26-.17-.31a.5.5 0 0 1-.03-.21c.01-.07.18-.28.26-.34s.21-.08.28-.02a1.55 1.55 0 0 1 .45 1.39c-.02.09-.14.15-.24.15m7.22-3.76c-1.88 0-3.41 1.53-3.41 3.41s1.53 3.41 3.41 3.41 3.41-1.53 3.41-3.41-1.53-3.41-3.41-3.41m0 6.22c-1.55 0-2.81-1.26-2.81-2.81s1.26-2.81 2.81-2.81 2.81 1.26 2.81 2.81-1.26 2.81-2.81 2.81" class="cls-1"/><circle cx="13.86" cy="6.39" r=".2" class="cls-1"/><path d="M13.86 4.19a2.21 2.21 0 1 0 .001 4.421 2.21 2.21 0 0 0-.001-4.421m-.73.61c.2-.12.47-.18.73-.18s.53.06.73.18c.08.05.1.18.07.27s-.18.32-.24.35-.16.04-.21.03c-.05 0-.22-.07-.35-.07-.12 0-.29.06-.35.07-.05 0-.15 0-.21-.03s-.21-.26-.24-.35-.01-.23.07-.27m-1.01 1.79c-.05-.23-.03-.5.05-.75s.22-.48.4-.64c.07-.07.2-.04.28.02s.25.27.26.34-.01.17-.03.21-.14.19-.17.31c-.04.12-.03.3-.04.35 0 .05-.05.14-.1.19s-.31.12-.41.12-.22-.06-.24-.15m1.61 1.34c-.03.09-.12.19-.22.18-.23-.03-.48-.13-.7-.28-.21-.15-.39-.36-.48-.57-.04-.09.03-.2.1-.26.08-.06.33-.16.4-.14.07.01.15.06.19.1s.14.19.24.26.28.12.32.15c.05.02.12.09.15.15s.02.34-.01.43Zm-.47-1.54c0-.33.27-.6.6-.6s.6.27.6.6-.27.6-.6.6-.6-.27-.6-.6m1.64 1.43c-.21.15-.46.26-.7.28-.1.01-.18-.09-.22-.18-.03-.09-.04-.36-.01-.43s.11-.13.15-.15.22-.07.32-.15c.1-.07.2-.23.24-.26.04-.04.12-.09.19-.1s.32.08.4.14.15.18.1.26c-.1.21-.27.42-.48.57Zm.46-1.08c-.1 0-.36-.07-.41-.12a.44.44 0 0 1-.1-.19c0-.05 0-.23-.04-.35s-.15-.26-.17-.31a.5.5 0 0 1-.03-.21c.01-.07.18-.28.26-.34s.21-.08.28-.02a1.55 1.55 0 0 1 .45 1.39c-.02.09-.14.15-.24.15M5.14 16.2c-1.88 0-3.41 1.53-3.41 3.41s1.53 3.41 3.41 3.41 3.41-1.53 3.41-3.41-1.53-3.41-3.41-3.41m0 6.22c-1.55 0-2.81-1.26-2.81-2.81s1.26-2.81 2.81-2.81 2.81 1.26 2.81 2.81-1.26 2.81-2.81 2.81" class="cls-1"/><path d="M5.14 19.41c-.11 0-.2.09-.2.2s.09.2.2.2.2-.09.2-.2-.09-.2-.2-.2" class="cls-1"/><path d="M5.14 17.4a2.21 2.21 0 1 0 .001 4.421A2.21 2.21 0 0 0 5.14 17.4m-.73.61c.2-.12.47-.18.73-.18s.53.06.73.18c.08.05.1.18.07.27s-.18.32-.24.35-.16.04-.21.03c-.05 0-.22-.07-.35-.07-.12 0-.29.06-.35.07-.05 0-.15 0-.21-.03s-.21-.26-.24-.35-.01-.23.07-.27M3.4 19.8c-.05-.23-.03-.5.05-.75s.22-.48.4-.64c.07-.07.2-.04.28.02s.25.27.26.34-.01.17-.03.21c-.02.05-.14.19-.17.31-.04.12-.03.3-.04.35 0 .05-.05.14-.1.19s-.31.12-.41.12-.22-.06-.24-.15m1.61 1.33c-.03.09-.12.19-.22.18-.23-.03-.48-.13-.7-.28-.21-.15-.39-.36-.48-.57-.04-.09.03-.2.1-.26.08-.06.33-.16.4-.14.07.01.15.06.19.1s.14.19.24.26.28.12.32.15.12.09.15.15.02.34-.01.43Zm-.47-1.54c0-.33.27-.6.6-.6s.6.27.6.6-.27.6-.6.6-.6-.27-.6-.6m1.64 1.43c-.21.15-.46.26-.7.28-.1.01-.18-.09-.22-.18-.03-.09-.04-.36-.01-.43.03-.06.11-.13.15-.15.05-.02.22-.07.32-.15.1-.07.2-.23.24-.26.04-.04.12-.09.19-.1s.32.08.4.14.15.18.1.26c-.1.21-.27.42-.48.57Zm.46-1.08c-.1 0-.36-.07-.41-.12a.44.44 0 0 1-.1-.19c0-.05 0-.23-.04-.35s-.15-.26-.17-.31a.5.5 0 0 1-.03-.21c.01-.07.18-.28.26-.34s.21-.08.28-.02a1.55 1.55 0 0 1 .45 1.39c-.02.09-.14.15-.24.15m7.22-3.74c-1.88 0-3.41 1.53-3.41 3.41s1.53 3.41 3.41 3.41 3.41-1.53 3.41-3.41-1.53-3.41-3.41-3.41m0 6.22c-1.55 0-2.81-1.26-2.81-2.81s1.26-2.81 2.81-2.81 2.81 1.26 2.81 2.81-1.26 2.81-2.81 2.81" class="cls-1"/><circle cx="13.86" cy="19.61" r=".2" class="cls-1"/><path d="M13.86 17.4a2.21 2.21 0 1 0 .001 4.421 2.21 2.21 0 0 0-.001-4.421m-.73.61c.2-.12.47-.18.73-.18s.53.06.73.18c.08.05.1.18.07.27s-.18.32-.24.35-.16.04-.21.03c-.05 0-.22-.07-.35-.07-.12 0-.29.06-.35.07-.05 0-.15 0-.21-.03s-.21-.26-.24-.35-.01-.23.07-.27m-1.01 1.79c-.05-.23-.03-.5.05-.75s.22-.48.4-.64c.07-.07.2-.04.28.02s.25.27.26.34-.01.17-.03.21c-.02.05-.14.19-.17.31-.04.12-.03.3-.04.35 0 .05-.05.14-.1.19s-.31.12-.41.12-.22-.06-.24-.15m1.61 1.33c-.03.09-.12.19-.22.18-.23-.03-.48-.13-.7-.28-.21-.15-.39-.36-.48-.57-.04-.09.03-.2.1-.26.08-.06.33-.16.4-.14.07.01.15.06.19.1s.14.19.24.26.28.12.32.15.12.09.15.15.02.34-.01.43Zm-.47-1.54c0-.33.27-.6.6-.6s.6.27.6.6-.27.6-.6.6-.6-.27-.6-.6m1.64 1.43c-.21.15-.46.26-.7.28-.1.01-.18-.09-.22-.18-.03-.09-.04-.36-.01-.43.03-.06.11-.13.15-.15s.22-.07.32-.15c.1-.07.2-.23.24-.26.04-.04.12-.09.19-.1s.32.08.4.14.15.18.1.26c-.1.21-.27.42-.48.57Zm.46-1.08c-.1 0-.36-.07-.41-.12a.44.44 0 0 1-.1-.19c0-.05 0-.23-.04-.35s-.15-.26-.17-.31a.5.5 0 0 1-.03-.21c.01-.07.18-.28.26-.34s.21-.08.28-.02a1.55 1.55 0 0 1 .45 1.39c-.02.09-.14.15-.24.15M9.5 9.59c-1.88 0-3.41 1.53-3.41 3.41s1.53 3.41 3.41 3.41 3.41-1.53 3.41-3.41-1.53-3.41-3.41-3.41m0 6.22c-1.55 0-2.81-1.26-2.81-2.81s1.26-2.81 2.81-2.81 2.81 1.26 2.81 2.81-1.26 2.81-2.81 2.81" class="cls-1"/><circle cx="9.5" cy="13" r=".2" class="cls-2"/><path d="M9.5 10.79a2.21 2.21 0 1 0 .001 4.421A2.21 2.21 0 0 0 9.5 10.79m-.73.61c.2-.12.47-.18.73-.18s.53.06.73.18c.08.05.1.18.07.27s-.18.32-.24.35-.16.04-.21.03c-.05 0-.22-.07-.35-.07-.12 0-.3.06-.35.07-.05 0-.15 0-.21-.03s-.21-.26-.24-.35-.01-.23.07-.27m-1.01 1.79c-.05-.23-.03-.5.05-.75s.22-.48.4-.64c.07-.07.2-.04.28.02s.25.27.26.34-.01.17-.03.21c-.02.05-.14.19-.17.31-.04.12-.03.3-.04.35 0 .05-.05.14-.1.19s-.31.12-.41.12-.22-.06-.24-.15m1.61 1.33c-.03.09-.12.19-.22.18-.23-.03-.48-.13-.7-.28-.21-.15-.39-.36-.48-.57-.04-.09.03-.2.1-.26.08-.06.33-.16.4-.14.07.01.15.06.19.1s.14.19.24.26.28.12.32.15c.05.02.12.09.15.15s.02.34-.01.43Zm-.47-1.54c0-.33.27-.6.6-.6s.6.27.6.6-.27.6-.6.6-.6-.27-.6-.6m1.64 1.43c-.21.15-.46.26-.7.28-.1.01-.18-.09-.22-.18-.03-.09-.04-.36-.01-.43s.11-.13.15-.15.22-.07.32-.15c.1-.07.2-.23.24-.26.04-.04.12-.09.19-.1s.32.08.4.14.15.18.1.26c-.1.21-.27.42-.48.57Zm.46-1.08c-.1 0-.36-.07-.41-.12a.44.44 0 0 1-.1-.19c0-.05 0-.23-.04-.35s-.15-.26-.17-.31a.5.5 0 0 1-.03-.21c.01-.07.18-.28.26-.34s.21-.08.28-.02a1.55 1.55 0 0 1 .45 1.39c-.02.09-.14.15-.24.15" class="cls-2"/></svg>