<svg xmlns="http://www.w3.org/2000/svg" viewBox="0 0 19 26"><defs><style>.cls-2{fill:#231815}</style></defs><path d="M6.48 8.22c.05-.07.1-.16.16-.25.06-.1.11-.18.14-.25.04-.07.09-.14.16-.22.07-.07.14-.13.22-.18.12-.1.23-.16.34-.18s.25-.04.41-.05c.17-.01.29-.03.36-.05.43.24.89.67 1.37 1.3-.02.12-.07.22-.14.31-.07.08-.19.21-.34.38-.16.17-.29.34-.41.5-.34 0-1.11.2-2.32.59-1.21.4-2.02.59-2.43.59-.6 0-.97-.07-1.12-.22.12-.12.37-.22.76-.31.38-.08.66-.16.83-.23C5.98 9.4 6.74 9 6.74 8.76c0-.19-.08-.37-.25-.54Z" class="cls-2"/><path d="M11.33 5.52s-.89.28-2.59.83-2.77.83-3.2.83c-.19 0-.48-.08-.86-.23-.38-.16-.58-.27-.58-.34 0-.12.16-.23.49-.34.32-.11.57-.16.74-.16.05 0 .15 0 .31.02.16.01.27.02.34.02.6 0 1.25-.13 1.94-.4.07-.26.1-.41.07-.43-.12-.22-.4-.52-.83-.9 0-.6-.06-1.04-.18-1.33.1-.1.22-.26.36-.49s.25-.37.32-.41c.07-.07.14-.12.22-.14.07-.02.19-.04.36-.04s.3-.01.4-.04c.65.7.97 1.24.97 1.62 0 .31-.11.62-.32.94-.22.31-.32.53-.32.65 0 .05.02.1.05.16.04.06.05.1.05.13.62-.22 1.22-.44 1.8-.68s1-.41 1.26-.52.47-.16.61-.16c.12 0 .28.04.49.11.2.07.46.17.77.29s.56.22.76.29c.05.02.14.07.27.13s.22.1.27.13c.05.02.13.06.23.11.11.05.18.09.22.13s.08.08.14.13.1.1.13.14c.02.05.05.1.07.16s.04.13.04.2c0 .29-.08.54-.25.76s-.37.32-.61.32c-.14 0-.73-.24-1.76-.72s-1.75-.72-2.16-.72ZM9.64 7.28c.89 0 1.83.31 2.82.92s1.49 1.15 1.49 1.6c0 .26-.07.53-.22.79-.14.26-.28.42-.4.47-.58-.31-1.27-.88-2.09-1.69S9.88 7.86 9.62 7.28Z" class="cls-2"/><path d="M8.04 19.76c-.1 0-.29.06-.58.18l-.14.29c-.12.19-.23.34-.32.43-.36-.22-.54-.91-.54-2.09 0-.91.05-1.57.14-1.98.89-.14 1.86-.36 2.93-.65s1.73-.43 2-.43c.5 0 .76.17.76.5l-.25.94a7.3 7.3 0 0 0-.25 1.94c0 .38.02.79.07 1.22.46.02.95.1 1.47.22.53.12 1.07.36 1.64.72.56.36.85.78.85 1.26 0 .41-.16.72-.47.94s-.71.32-1.19.32c-.12 0-.39.08-.81.23-.42.16-.74.23-.95.23-.31 0-.88-.16-1.71-.49q-1.245-.48-1.74-.81c-.12.05-.25.13-.38.23-.13.11-.23.16-.31.16-.12 0-.5-.1-1.15-.29 0 .02 0 .1-.02.22a1.3 1.3 0 0 1-.04.27c-.01.06-.02.13-.04.22-.01.08-.04.15-.09.2s-.11.07-.18.07-.15-.05-.23-.14c-.08-.1-.16-.22-.22-.38s-.12-.31-.18-.45-.11-.3-.16-.47-.08-.28-.11-.32h-.43c-.46 0-.88-.07-1.26-.22-.38-.14-.58-.35-.58-.61 0-.02 0-.06.02-.11.01-.05.02-.1.02-.14.22 0 .52.02.9.07s.68.07.9.07h.14c-.02-.19-.07-.46-.14-.81s-.13-.64-.18-.86c-.05-.23-.07-.4-.07-.52 0-.05.05-.12.14-.22.29.05.5.19.63.41.13.23.25.55.34.95.1.41.22.74.36 1.01.34 0 .79-.1 1.37-.29 0-.07 0-.24.02-.5.01-.26.02-.44.02-.54Zm4.5-4.93c-.72 0-1.79.21-3.2.63-1.42.42-2.35.63-2.81.63-1.44 0-2.37-.26-2.81-.79.43-.26.76-.4.97-.4.24 0 .61.06 1.1.18s.9.18 1.24.18c.48 0 .8-.05.97-.14.17-.1.25-.31.25-.65 0-.07-.07-.13-.2-.16-.13-.04-.22-.09-.27-.16 0-.1.02-.17.05-.22.04-.05.1-.11.18-.2.08-.08.15-.17.2-.27q.075-.105.27-.45c.195-.345.24-.38.32-.47.08-.08.19-.13.31-.13.17 0 .25.12.25.36 0 .19-.02.39-.05.59-.04.2-.1.43-.18.68s-.14.45-.16.59c.05.12.13.18.25.18.14 0 .35-.28.63-.83s.41-.95.41-1.19c0-.14-.08-.28-.23-.41-.16-.13-.26-.23-.31-.31.19-.43.61-.77 1.26-1.01.48.17.72.61.72 1.33 0 .24-.1.53-.31.86-.2.34-.32.65-.34.94.19-.02.46-.07.79-.14a9.3 9.3 0 0 1 2.09-.21c.77 0 1.21.08 1.33.25-.17.34-.43.59-.79.76-.31-.02-.96-.04-1.94-.04Zm-5.76 7.01c.1.24.18.43.25.58.34-.07.72-.2 1.15-.4-.12-.14-.18-.34-.18-.58zm.54-4.75v.65h.07l.07.04.65-.11c0-.19.02-.43.07-.72zm.72 1.19c-.14.02-.3.05-.47.07-.14 0-.22.01-.23.04a.4.4 0 0 0-.02.14v.14s0 .13.02.25c.01.12.02.2.02.25.12 0 .35-.02.68-.07v-.83Zm.9-1.51c0 .12-.02.25-.05.4-.04.14-.05.26-.05.36.24-.05.52-.1.83-.16s.54-.1.68-.13c0-.12 0-.26.02-.43.01-.17.02-.3.02-.4-.22.05-.47.11-.76.2-.29.08-.52.14-.68.16Zm-.11 1.37v.79c.34-.02.81-.13 1.44-.32 0-.36.01-.64.04-.83q-.795.255-1.47.36Zm.07 1.44v.97c.53-.1.99-.23 1.4-.4 0-.41-.01-.72-.04-.94q-.18.075-.63.18c-.3.07-.55.13-.74.18Zm.04 1.62c0 .38.06.58.18.58.1 0 .2-.02.31-.05.11-.04.25-.09.43-.16s.35-.13.52-.18c-.05-.26-.06-.46-.04-.58-.14.02-.61.16-1.4.4Zm3.02-.43s.02.16.05.32c.04.17.05.31.05.43s-.04.25-.11.4c-.46.31-.9.47-1.33.47-.02-.02-.06-.1-.11-.22s-.08-.2-.11-.25c-.14.05-.31.13-.49.25s-.33.2-.45.25q.15.21.72.45c.38.16.68.23.9.23.14 0 .28-.03.41-.09s.28-.15.43-.27c.16-.12.28-.2.38-.25.12-.05.35-.08.7-.11.35-.02.61-.09.79-.2s.27-.29.27-.56c0-.19-.25-.38-.76-.56-.5-.18-.96-.28-1.37-.31Z" style="fill:#881c21"/></svg>