<svg xmlns="http://www.w3.org/2000/svg" viewBox="0 0 19 26"><defs><style>.cls-1{fill:#011833}.cls-2{fill:#881c21}</style></defs><path d="M6.92 19.94c-.09 0-.17.08-.17.17s.08.17.17.17.17-.08.17-.17-.08-.17-.17-.17" class="cls-2"/><path d="M6.92 18.23c-1.04 0-1.88.84-1.88 1.88s.84 1.88 1.88 1.88 1.88-.84 1.88-1.88-.84-1.88-1.88-1.88m-.62.52c.17-.1.4-.15.62-.15s.45.05.62.15c.07.04.08.15.06.23s-.15.27-.21.3c-.05.03-.14.03-.18.03s-.19-.06-.29-.06-.25.05-.29.06-.13 0-.18-.03-.18-.22-.21-.3c-.02-.08-.01-.19.06-.23m-.86 1.53c-.04-.19-.02-.43.05-.64s.19-.41.34-.54c.06-.06.17-.03.24.02s.21.23.22.29c0 .06 0 .14-.03.18-.02.04-.12.16-.15.26s-.03.26-.03.3-.04.12-.08.16-.27.1-.35.1-.19-.05-.2-.13Zm1.37 1.14c-.03.08-.1.16-.19.15-.2-.02-.41-.11-.59-.24a1.3 1.3 0 0 1-.41-.49c-.03-.07.02-.17.09-.22s.28-.13.34-.12c.06 0 .13.05.16.08s.12.16.2.22.24.1.27.12c.04.02.1.08.13.13s.02.29-.01.36Zm-.4-1.31c0-.28.23-.51.51-.51s.51.23.51.51-.23.51-.51.51-.51-.23-.51-.51m1.4 1.22c-.18.13-.39.22-.59.24-.08.01-.16-.07-.18-.15-.03-.08-.04-.31-.01-.36s.09-.11.13-.13.19-.06.27-.12.17-.19.2-.22.1-.07.16-.08.28.07.34.12c.07.05.12.15.09.22-.08.18-.23.36-.41.49Zm.39-.92c-.08 0-.31-.06-.35-.1a.3.3 0 0 1-.08-.16c0-.04 0-.2-.03-.3s-.13-.22-.15-.26-.04-.12-.03-.18c0-.06.15-.24.22-.29s.18-.07.24-.02c.15.13.27.33.34.54s.09.44.05.64c-.02.08-.12.13-.2.13Zm-1.28-5.62c-.09 0-.17.08-.17.17s.08.17.17.17.17-.08.17-.17-.08-.17-.17-.17" class="cls-2"/><path d="M6.92 13.08c-1.04 0-1.88.84-1.88 1.88s.84 1.88 1.88 1.88S8.8 16 8.8 14.96s-.84-1.88-1.88-1.88m-.62.52c.17-.1.4-.15.62-.15s.45.05.62.15c.07.04.08.15.06.23s-.15.27-.21.3c-.05.03-.14.03-.18.03s-.19-.06-.29-.06-.25.05-.29.06-.13 0-.18-.03-.18-.22-.21-.3c-.02-.08-.01-.19.06-.23m-.86 1.53c-.04-.19-.02-.43.05-.64s.19-.41.34-.54c.06-.06.17-.03.24.02s.21.23.22.29c0 .06 0 .14-.03.18-.02.04-.12.16-.15.26s-.03.26-.03.3-.04.12-.08.16-.27.1-.35.1-.19-.05-.2-.13Zm1.37 1.14c-.03.08-.1.16-.19.15-.2-.02-.41-.11-.59-.24a1.3 1.3 0 0 1-.41-.49c-.03-.07.02-.17.09-.22s.28-.13.34-.12c.06 0 .13.05.16.08s.12.16.2.22.24.1.27.12c.04.02.1.08.13.13s.02.29-.01.36Zm-.4-1.31c0-.28.23-.51.51-.51s.51.23.51.51-.23.51-.51.51-.51-.23-.51-.51m1.4 1.22c-.18.13-.39.22-.59.24-.08.01-.16-.07-.18-.15-.03-.08-.04-.31-.01-.36s.09-.11.13-.13.19-.06.27-.12.17-.19.2-.22.1-.07.16-.08.28.07.34.12c.07.05.12.15.09.22-.08.18-.23.36-.41.49Zm.39-.92c-.08 0-.31-.06-.35-.1a.3.3 0 0 1-.08-.16c0-.04 0-.2-.03-.3s-.13-.22-.15-.26-.04-.12-.03-.18c0-.06.15-.24.22-.29s.18-.07.24-.02c.15.13.27.33.34.54s.09.44.05.64c-.02.08-.12.13-.2.13Zm3.7-.3c0 .09.08.17.17.17s.17-.08.17-.17-.08-.17-.17-.17-.17.08-.17.17" class="cls-2"/><path d="M12.08 13.08c-1.04 0-1.88.84-1.88 1.88s.84 1.88 1.88 1.88 1.88-.84 1.88-1.88-.84-1.88-1.88-1.88m-.62.52c.17-.1.4-.15.62-.15s.45.05.62.15c.07.04.08.15.06.23s-.15.27-.21.3c-.05.03-.14.03-.18.03s-.19-.06-.29-.06-.25.05-.29.06c-.04 0-.13 0-.18-.03s-.18-.22-.21-.3c-.02-.08-.01-.19.06-.23m-.86 1.53c-.04-.19-.02-.43.05-.64s.19-.41.34-.54c.06-.06.17-.03.24.02s.21.23.22.29c0 .06 0 .14-.03.18-.02.04-.12.16-.15.26s-.03.26-.03.3-.04.12-.08.16-.27.1-.35.1-.19-.05-.2-.13Zm1.37 1.14c-.03.08-.1.16-.19.15-.2-.02-.41-.11-.59-.24a1.3 1.3 0 0 1-.41-.49c-.03-.07.02-.17.09-.22s.28-.13.34-.12c.06 0 .13.05.16.08s.12.16.2.22.24.1.27.12.1.08.13.13.02.29-.01.36Zm-.4-1.31c0-.28.23-.51.51-.51s.51.23.51.51-.23.51-.51.51-.51-.23-.51-.51m1.4 1.22c-.18.13-.39.22-.59.24-.08.01-.16-.07-.18-.15-.03-.08-.04-.31-.01-.36s.09-.11.13-.13.19-.06.27-.12.17-.19.2-.22.1-.07.16-.08.28.07.34.12c.07.05.12.15.09.22-.08.18-.23.36-.41.49Zm.39-.92c-.08 0-.31-.06-.35-.1a.3.3 0 0 1-.08-.16c0-.04 0-.2-.03-.3s-.13-.22-.15-.26a.34.34 0 0 1-.03-.18c0-.06.15-.24.22-.29s.18-.07.24-.02c.15.13.27.33.34.54s.09.44.05.64c-.02.08-.12.13-.2.13Z" class="cls-2"/><path d="M13.39 17.54c.94-.48 1.59-1.45 1.59-2.58 0-1.6-1.3-2.9-2.9-2.9-1.13 0-2.09.65-2.58 1.59a2.9 2.9 0 0 0-2.58-1.59c-1.6 0-2.9 1.3-2.9 2.9 0 1.13.65 2.09 1.59 2.58-.94.48-1.59 1.45-1.59 2.58 0 1.6 1.3 2.9 2.9 2.9 1.13 0 2.09-.65 2.58-1.59.48.94 1.45 1.59 2.58 1.59 1.6 0 2.9-1.3 2.9-2.9 0-1.13-.65-2.09-1.59-2.58m-1.31-4.97a2.39 2.39 0 1 1 0 4.78 2.39 2.39 0 0 1 0-4.78m-7.54 2.39a2.39 2.39 0 1 1 4.78 0 2.39 2.39 0 0 1-4.78 0m2.39 7.54a2.39 2.39 0 1 1 0-4.78 2.39 2.39 0 0 1 0 4.78m1.31-4.97c.54-.28.98-.72 1.26-1.26.28.54.72.98 1.26 1.26-.54.28-.98.72-1.26 1.26-.28-.54-.72-.98-1.26-1.26m3.84 4.97a2.39 2.39 0 1 1 0-4.78 2.39 2.39 0 0 1 0 4.78" class="cls-1"/><path d="M11.9 20.11c0 .09.08.17.17.17s.17-.08.17-.17-.08-.17-.17-.17-.17.08-.17.17" class="cls-2"/><path d="M12.08 18.23c-1.04 0-1.88.84-1.88 1.88s.84 1.88 1.88 1.88 1.88-.84 1.88-1.88-.84-1.88-1.88-1.88m-.62.52c.17-.1.4-.15.62-.15s.45.05.62.15c.07.04.08.15.06.23s-.15.27-.21.3c-.05.03-.14.03-.18.03s-.19-.06-.29-.06-.25.05-.29.06c-.04 0-.13 0-.18-.03s-.18-.22-.21-.3c-.02-.08-.01-.19.06-.23m-.86 1.53c-.04-.19-.02-.43.05-.64s.19-.41.34-.54c.06-.06.17-.03.24.02s.21.23.22.29c0 .06 0 .14-.03.18-.02.04-.12.16-.15.26s-.03.26-.03.3-.04.12-.08.16-.27.1-.35.1-.19-.05-.2-.13Zm1.37 1.14c-.03.08-.1.16-.19.15-.2-.02-.41-.11-.59-.24a1.3 1.3 0 0 1-.41-.49c-.03-.07.02-.17.09-.22s.28-.13.34-.12c.06 0 .13.05.16.08s.12.16.2.22.24.1.27.12c.04.02.1.08.13.13s.02.29-.01.36Zm-.4-1.31c0-.28.23-.51.51-.51s.51.23.51.51-.23.51-.51.51-.51-.23-.51-.51m1.4 1.22c-.18.13-.39.22-.59.24-.08.01-.16-.07-.18-.15-.03-.08-.04-.31-.01-.36s.09-.11.13-.13.19-.06.27-.12.17-.19.2-.22.1-.07.16-.08.28.07.34.12c.07.05.12.15.09.22-.08.18-.23.36-.41.49Zm.39-.92c-.08 0-.31-.06-.35-.1a.3.3 0 0 1-.08-.16c0-.04 0-.2-.03-.3s-.13-.22-.15-.26-.04-.12-.03-.18.15-.24.22-.29.18-.07.24-.02c.15.13.27.33.34.54s.09.44.05.64c-.02.08-.12.13-.2.13Z" class="cls-2"/><path d="M6.92 5.72c-.09 0-.17.08-.17.17s.08.17.17.17.17-.08.17-.17-.08-.17-.17-.17" class="cls-1"/><path d="M6.92 4.01c-1.04 0-1.88.84-1.88 1.88s.84 1.88 1.88 1.88S8.8 6.93 8.8 5.89s-.84-1.88-1.88-1.88m-.62.52c.17-.1.4-.15.62-.15s.45.05.62.15c.07.04.08.15.06.23s-.15.27-.21.3c-.05.03-.14.03-.18.03s-.19-.06-.29-.06-.25.05-.29.06c-.04 0-.13 0-.18-.03s-.18-.22-.21-.3c-.02-.08-.01-.19.06-.23m-.86 1.53c-.04-.19-.02-.43.05-.64s.19-.41.34-.54c.06-.06.17-.03.24.02s.21.23.22.29c0 .06 0 .14-.03.18-.02.04-.12.16-.15.26s-.03.26-.03.3-.04.12-.08.16-.27.1-.35.1-.19-.05-.2-.13ZM6.81 7.2c-.03.08-.1.16-.19.15-.2-.02-.41-.11-.59-.24a1.3 1.3 0 0 1-.41-.49c-.03-.07.02-.17.09-.22s.28-.13.34-.12c.06 0 .13.05.16.08s.12.16.2.22.24.1.27.12.1.08.13.13.02.29-.01.36Zm-.4-1.31c0-.28.23-.51.51-.51s.51.23.51.51-.23.51-.51.51-.51-.23-.51-.51m1.4 1.22c-.18.13-.39.22-.59.24-.08.01-.16-.07-.18-.15-.03-.08-.04-.31-.01-.36s.09-.11.13-.13.19-.06.27-.12.17-.19.2-.22.1-.07.16-.08.28.07.34.12c.07.05.12.15.09.22-.08.18-.23.36-.41.49Zm.39-.92c-.08 0-.31-.06-.35-.1a.3.3 0 0 1-.08-.16c0-.04 0-.2-.03-.3s-.13-.22-.15-.26a.34.34 0 0 1-.03-.18c0-.06.15-.24.22-.29s.18-.07.24-.02c.15.13.27.33.34.54s.09.44.05.64c-.02.08-.12.13-.2.13Z" class="cls-1"/><path d="M12.08 2.98c-1.13 0-2.09.65-2.58 1.59a2.9 2.9 0 0 0-2.58-1.59c-1.6 0-2.9 1.3-2.9 2.9s1.3 2.9 2.9 2.9c1.13 0 2.09-.65 2.58-1.59.48.94 1.45 1.59 2.58 1.59 1.6 0 2.9-1.3 2.9-2.9s-1.3-2.9-2.9-2.9m-5.15 5.3a2.39 2.39 0 1 1 0-4.78 2.39 2.39 0 0 1 0 4.78m5.15 0a2.39 2.39 0 1 1 0-4.78 2.39 2.39 0 0 1 0 4.78" class="cls-1"/><path d="M11.9 5.89c0 .09.08.17.17.17s.17-.08.17-.17-.08-.17-.17-.17-.17.08-.17.17" class="cls-1"/><path d="M12.08 4.01c-1.04 0-1.88.84-1.88 1.88s.84 1.88 1.88 1.88 1.88-.84 1.88-1.88-.84-1.88-1.88-1.88m-.62.52c.17-.1.4-.15.62-.15s.45.05.62.15c.07.04.08.15.06.23s-.15.27-.21.3c-.05.03-.14.03-.18.03s-.19-.06-.29-.06-.25.05-.29.06c-.04 0-.13 0-.18-.03s-.18-.22-.21-.3c-.02-.08-.01-.19.06-.23m-.86 1.53c-.04-.19-.02-.43.05-.64s.19-.41.34-.54c.06-.06.17-.03.24.02s.21.23.22.29c0 .06 0 .14-.03.18s-.12.16-.15.26-.03.26-.03.3-.04.12-.08.16-.27.1-.35.1-.19-.05-.2-.13Zm1.37 1.14c-.03.08-.1.16-.19.15-.2-.02-.41-.11-.59-.24a1.3 1.3 0 0 1-.41-.49c-.03-.07.02-.17.09-.22s.28-.13.34-.12c.06 0 .13.05.16.08s.12.16.2.22.24.1.27.12.1.08.13.13.02.29-.01.36Zm-.4-1.31c0-.28.23-.51.51-.51s.51.23.51.51-.23.51-.51.51-.51-.23-.51-.51m1.4 1.22c-.18.13-.39.22-.59.24-.08.01-.16-.07-.18-.15-.03-.08-.04-.31-.01-.36s.09-.11.13-.13.19-.06.27-.12.17-.19.2-.22.1-.07.16-.08c.06 0 .28.07.34.12.07.05.12.15.09.22-.08.18-.23.36-.41.49Zm.39-.92c-.08 0-.31-.06-.35-.1a.3.3 0 0 1-.08-.16c0-.04 0-.2-.03-.3s-.13-.22-.15-.26-.04-.12-.03-.18c0-.06.15-.24.22-.29s.18-.07.24-.02c.15.13.27.33.34.54s.09.44.05.64c-.02.08-.12.13-.2.13Z" class="cls-1"/></svg>