<svg xmlns="http://www.w3.org/2000/svg" viewBox="0 0 19 26"><path d="M2.48 18.89c0-.19.15-.46.45-.8s.68-.93 1.14-1.74c.46-.82.85-1.82 1.16-3.01q-1.245-.825-1.35-1.71c.47.21 1.01.36 1.6.43.02-.24.09-.46.21-.68.07.17.12.44.14.82.66.21 1 .48 1 .78 0 .33-.38.5-1.14.5-.14.76-.28 1.44-.43 2.05a52 52 0 0 1-.3 1.26c-.06.24-.09.4-.09.5 0 .19.02.32.07.39.24-.02.67-.23 1.3-.62s1.12-.73 1.48-1.02q.21-.36.21-1.53c0-.17 0-.45-.02-.85-.01-.4-.02-.7-.02-.89q0-.99-.18-1.62c-.12-.42-.26-.69-.41-.84-.15-.14-.29-.3-.41-.46a.97.97 0 0 1-.18-.57c0-.26.09-.49.28-.68.38.14.78.27 1.19.37.42.11.69.19.82.25s.27.17.41.34q.21.255.36.75c-.4.26-.65.66-.75 1.21s-.17 1.78-.21 3.7c.24-.14.52-.34.84-.61.32-.26.54-.43.66-.5 0-.57.05-1.28.14-2.12s.14-1.42.14-1.73c0-.19-.01-.36-.04-.52a1.3 1.3 0 0 0-.11-.39c-.05-.11-.09-.2-.12-.28a.8.8 0 0 0-.18-.23c-.08-.07-.14-.12-.18-.16s-.11-.08-.21-.14c-.11-.06-.17-.1-.2-.12.09-.28.22-.53.37-.73s.36-.42.62-.64c.26-.23.46-.42.61-.59.21.17.5.49.87.98s.55.87.55 1.16c0 .1-.07.2-.2.3-.13.11-.27.21-.41.32s-.28.34-.41.71-.2.84-.2 1.41v2.07c.17-.12.39-.26.68-.43.28-.17.49-.29.62-.37q.195-.12.36-.39c.11-.18.16-.39.16-.62 0-.05 0-.09-.02-.14-.01-.05-.02-.09-.02-.14q.21-.21.75-.21c.33 0 .68.11 1.03.34.36.23.53.49.53.8 0 .14-.15.25-.45.32s-.8.22-1.5.44c-.7.23-1.4.55-2.08.98v.28c0 1.47.13 2.41.39 2.81s.85.61 1.78.61c.47 0 .96-.05 1.44-.16.49-.11.81-.16.98-.16.31 0 .46.12.46.36q0 1.5-4.02 1.5c-.62 0-1.12-.13-1.51-.39s-.59-.62-.59-1.07c0-.17 0-.37.02-.62.01-.25.02-.45.02-.59 0-.26-.02-.6-.05-1.01a10 10 0 0 1-.05-.91c-.45.33-.95.74-1.5 1.21 0 .1.01.21.04.36.02.14.04.26.04.36 0 .31-.1.58-.3.8-.2.23-.37.35-.52.37-.07 0-.15-.04-.25-.12a.33.33 0 0 1-.14-.27c0-.12-.08-.29-.25-.5-.45.31-.96.72-1.51 1.25-.56.52-1.04.91-1.46 1.18-.42.26-.86.39-1.34.39-.43 0-.64-.25-.64-.75Z" style="fill:#231815"/></svg>