<svg xmlns="http://www.w3.org/2000/svg" viewBox="0 0 19 26"><path d="M13.99 15.68c-.09.24-.56.36-1.39.36-.12 0-.3 0-.55-.02-.25-.01-.45-.02-.59-.02-.05 0-.14 0-.27.02-.13.01-.23.02-.3.02-.14 1.31-.25 2.02-.32 2.14-.17.24-.56.54-1.19.91s-1.05.55-1.26.55c-.12 0-.23-.05-.34-.14a.4.4 0 0 1-.16-.32c0-.14.17-.33.52-.57.34-.24.71-.56 1.1-.98s.62-.91.69-1.48c-.1.02-.34.05-.75.09-.4.04-.7.08-.89.12-.14.29-.3.62-.48 1.01s-.31.69-.41.89-.21.41-.34.62-.27.37-.41.46-.31.14-.5.14c-.17 0-.34-.06-.53-.18a2.3 2.3 0 0 1-.46-.37c-.12-.13-.28-.33-.5-.59-.21-.26-.37-.44-.46-.53-.12.05-.38.07-.78.07-.38 0-.69-.42-.93-1.25.62.26 1.03.39 1.25.39.19 0 .87-.26 2.03-.78q1.74-.78 1.92-.96c-.02-.19-.23-.42-.61-.68-.24.05-.55.24-.93.59-.38.34-.68.52-.89.52-.28 0-.49-.09-.61-.28.17-.09.55-.36 1.14-.78.59-.43 1.07-.71 1.42-.85.19-.24.28-.52.28-.85a.8.8 0 0 0-.36-.07c-.21 0-.51.12-.89.36-.76.9-1.42 1.55-1.99 1.94s-1.31.67-2.21.84c1.92-1.54 3.35-2.92 4.27-4.13-.07-.14-.4-.49-.98-1.05s-.88-1-.91-1.34q.57.075 1.35.66c.52.39.9.72 1.14.98.66-.81 1.13-1.58 1.39-2.32-.26.02-.63.15-1.1.39-.48.24-.84.36-1.1.36-.19 0-.33-.05-.43-.14q.03-.03.48-.36c.3-.21.63-.45 1-.71s.66-.49.87-.68q.21-.21.48-.57t.48-.57c.14-.14.28-.21.43-.21s.28.05.43.16c.14.11.21.23.21.37 0 .02-.08.26-.25.71.07.12.3.39.68.82.21-.28.47-.88.78-1.78s.52-1.41.64-1.53c.12.05.27.21.46.48s.28.5.28.69c0 .07-.05.15-.16.25s-.18.19-.23.28c-.28.74-.71 1.51-1.28 2.31.4.62.65.97.75 1.07q.75-.75.96-1.5c.21.02.42.13.61.32s.29.37.29.53-.06.25-.18.25c-.14 0-.28.05-.43.14-.14.09-.29.23-.45.39-.15.17-.28.28-.37.36.71.95 1.32 1.67 1.82 2.17s.84.79 1.03.87.44.34.75.77.7 1.13 1.18 2.1c-.24 0-.54-.09-.91-.28s-.83-.45-1.37-.78c-.55-.33-1.02-.59-1.42-.78-.14-.21-.32-.62-.53-1.23s-.61-1.37-1.17-2.3c-.19.1-.39.14-.61.14.24-.4.36-.62.36-.64-.64-1.23-1.22-2.12-1.75-2.67-.33.66-1.08 1.91-2.24 3.74.14.14.31.21.5.21.09 0 .23-.05.39-.16.17-.11.3-.16.39-.16.28 0 .47.1.57.29-.05.09-.12.18-.21.25-.1.07-.2.14-.32.2s-.21.11-.28.16c-.14.24-.19.49-.14.75.4-.07.8-.23 1.18-.46.31-1.12.46-2.07.46-2.85 0-.19-.01-.37-.04-.53.59.38.89.81.89 1.28 0 .17-.02.3-.05.39-.04.09-.08.19-.14.28-.06.1-.15.32-.28.66s-.28.79-.45 1.34c.12.14.21.21.28.21.17 0 .43-.09.8-.28s.68-.28.94-.28c.24 0 .4.18.5.53-.05.05-.22.11-.52.18s-.52.15-.66.25c-.07.43-.12.88-.14 1.35.24 0 .5-.01.78-.04.28-.02.45-.04.5-.04.09 0 .21-.04.34-.12s.24-.11.34-.09c.5.12.85.32 1.07.61Zm-9.51 1.96q.57.57 1.5.57c.24 0 .53-.25.89-.75s.53-.84.53-1.03q0-.21-.21-.36c-1.19.55-2.09 1.07-2.71 1.57m4.35-2.99c0-.07.02-.15.05-.25.04-.09.08-.23.14-.41q.09-.27.12-.45c-.62.1-1.13.34-1.53.75.05.21.15.37.32.48s.26.18.28.23c.19.4.3.64.32.71.12-.02.64-.11 1.57-.25.09-.47.14-.91.14-1.32-.31 0-.56-.04-.75-.11-.33.38-.56.58-.68.61Zm2.88 2.67c.14-.14.44-.21.89-.21.55 0 1.07.14 1.57.43.5.28.75.61.75.96s-.18.65-.55.87c-.37.23-.75.34-1.16.34-.02 0-.05 0-.09-.02-.04-.01-.07-.02-.09-.02-.12-.17-.26-.45-.43-.85s-.46-.9-.89-1.5" style="fill:#005529"/></svg>