<svg xmlns="http://www.w3.org/2000/svg" viewBox="0 0 19 26"><path d="M15.97 5.39c-.3-.28-.87-.53-1.71-.77-1.1-.34-2.23-.55-3.38-.65-.02-.02-.09-.1-.2-.22a5 5 0 0 0-.32-.32c-.11-.1-.2-.14-.27-.14s-.13.04-.18.11-.1.19-.14.36c-.05.17-.08.28-.11.32-1.2.24-3.12.89-5.76 1.94-.96-.36-1.55-.54-1.76-.54-.17 0-.3.08-.4.25.36.53.68.97.97 1.31.29.35.51.61.67.77.16.17.42.42.79.76s.68.62.92.86c.05.05.14.14.27.29.13.14.23.25.29.32s.15.16.27.25c.12.1.23.16.34.2s.22.05.34.05c.19 0 .65-.2 1.37-.61s1.44-.61 2.16-.61c.46 0 .85.04 1.17.13.32.08.62.19.88.32s.47.21.61.23c.34-.22.74-.48 1.21-.79s.99-.74 1.56-1.28c.58-.54.86-.97.86-1.28 0-.58-.15-1-.45-1.28ZM7.1 9.22c-.46-.48-.86-.9-1.21-1.28-.35-.37-.58-.61-.68-.72-.11-.11-.2-.22-.29-.32-.08-.11-.17-.25-.27-.41.1-.05.34-.07.72-.07.17 0 .34-.02.5-.05.17-.04.35-.09.56-.16.2-.07.38-.12.52-.14.12.1.18.26.18.5 0 .12.06.46.18 1.01s.19 1.03.22 1.44l-.43.22Zm2.12-.65c-.07.02-.2.06-.38.11s-.32.08-.41.11c.17-.89.25-1.55.25-1.98 0-.12-.11-.53-.32-1.22.36-.22.73-.32 1.12-.32-.07.67-.16 1.78-.25 3.31Zm4.32-.86c-.38.65-.65.97-.79.97-.02 0-.17-.02-.43-.05-.26-.04-.58-.07-.95-.11s-.69-.05-.95-.05c.1-.5.28-1.12.54-1.83.26-.72.4-1.16.4-1.33 0-.02 0-.06-.02-.11-.01-.05-.02-.08-.02-.11.43.05 1.01.25 1.73.61s1.08.64 1.08.83c0 .14-.19.54-.58 1.19Z" style="fill:#231815"/><path d="M8.05 19.76c-.1 0-.29.06-.58.18l-.14.29c-.12.19-.23.34-.32.43-.36-.22-.54-.91-.54-2.09 0-.91.05-1.57.14-1.98.89-.14 1.86-.36 2.93-.65s1.73-.43 2-.43c.5 0 .76.17.76.5l-.25.94a7.3 7.3 0 0 0-.25 1.94c0 .38.02.79.07 1.22.46.02.95.1 1.47.22.53.12 1.07.36 1.64.72.56.36.85.78.85 1.26 0 .41-.16.72-.47.94s-.71.32-1.19.32c-.12 0-.39.08-.81.23-.42.16-.74.23-.95.23-.31 0-.88-.16-1.71-.49q-1.245-.48-1.74-.81c-.12.05-.25.13-.38.23-.13.11-.23.16-.31.16-.12 0-.5-.1-1.15-.29 0 .02 0 .1-.02.22a1.3 1.3 0 0 1-.04.27c-.01.06-.02.13-.04.22-.01.08-.04.15-.09.2s-.11.07-.18.07-.15-.05-.23-.14c-.08-.1-.16-.22-.22-.38s-.12-.31-.18-.45-.11-.3-.16-.47-.08-.28-.11-.32h-.43c-.46 0-.88-.07-1.26-.22-.38-.14-.58-.35-.58-.61 0-.02 0-.06.02-.11.01-.05.02-.1.02-.14.22 0 .52.02.9.07s.68.07.9.07h.14c-.02-.19-.07-.46-.14-.81s-.13-.64-.18-.86c-.05-.23-.07-.4-.07-.52 0-.05.05-.12.14-.22.29.05.5.19.63.41.13.23.25.55.34.95.1.41.22.74.36 1.01.34 0 .79-.1 1.37-.29 0-.07 0-.24.02-.5.01-.26.02-.44.02-.54Zm4.5-4.93c-.72 0-1.79.21-3.2.63-1.42.42-2.35.63-2.81.63-1.44 0-2.37-.26-2.81-.79.43-.26.76-.4.97-.4.24 0 .61.06 1.1.18s.9.18 1.24.18c.48 0 .8-.05.97-.14.17-.1.25-.31.25-.65 0-.07-.07-.13-.2-.16-.13-.04-.22-.09-.27-.16 0-.1.02-.17.05-.22.04-.05.1-.11.18-.2.08-.08.15-.17.2-.27q.075-.105.27-.45c.195-.345.24-.38.32-.47.08-.08.19-.13.31-.13.17 0 .25.12.25.36 0 .19-.02.39-.05.59-.04.2-.1.43-.18.68s-.14.45-.16.59c.05.12.13.18.25.18.14 0 .35-.28.63-.83s.41-.95.41-1.19c0-.14-.08-.28-.23-.41-.16-.13-.26-.23-.31-.31.19-.43.61-.77 1.26-1.01.48.17.72.61.72 1.33 0 .24-.1.53-.31.86-.2.34-.32.65-.34.94.19-.02.46-.07.79-.14a9.3 9.3 0 0 1 2.09-.21c.77 0 1.21.08 1.33.25-.17.34-.43.59-.79.76-.31-.02-.96-.04-1.94-.04Zm-5.76 7.01c.1.24.18.43.25.58.34-.07.72-.2 1.15-.4-.12-.14-.18-.34-.18-.58zm.54-4.75v.65h.07l.07.04.65-.11c0-.19.02-.43.07-.72zm.72 1.19c-.14.02-.3.05-.47.07-.14 0-.22.01-.23.04a.4.4 0 0 0-.02.14v.14s0 .13.02.25c.01.12.02.2.02.25.12 0 .35-.02.68-.07v-.83Zm.9-1.51c0 .12-.02.25-.05.4-.04.14-.05.26-.05.36.24-.05.52-.1.83-.16s.54-.1.68-.13c0-.12 0-.26.02-.43.01-.17.02-.3.02-.4-.22.05-.47.11-.76.2-.29.08-.52.14-.68.16Zm-.11 1.37v.79c.34-.02.81-.13 1.44-.32 0-.36.01-.64.04-.83q-.795.255-1.47.36Zm.07 1.44v.97c.53-.1.99-.23 1.4-.4 0-.41-.01-.72-.04-.94q-.18.075-.63.18c-.3.07-.55.13-.74.18Zm.04 1.62c0 .38.06.58.18.58.1 0 .2-.02.31-.05.11-.04.25-.09.43-.16s.35-.13.52-.18c-.05-.26-.06-.46-.04-.58-.14.02-.61.16-1.4.4Zm3.02-.43s.02.16.05.32c.04.17.05.31.05.43s-.04.25-.11.4c-.46.31-.9.47-1.33.47-.02-.02-.06-.1-.11-.22s-.08-.2-.11-.25c-.14.05-.31.13-.49.25s-.33.2-.45.25q.15.21.72.45c.38.16.68.23.9.23.14 0 .28-.03.41-.09s.28-.15.43-.27c.16-.12.28-.2.38-.25.12-.05.35-.08.7-.11.35-.02.61-.09.79-.2s.27-.29.27-.56c0-.19-.25-.38-.76-.56-.5-.18-.96-.28-1.37-.31Z" style="fill:#881c21"/></svg>