<svg xmlns="http://www.w3.org/2000/svg" id="_图层_1" data-name="图层 1" viewBox="0 0 19 26"><defs><style>.cls-1{fill:#011833}</style></defs><path d="M5.14 3.28c-1.88 0-3.41 1.53-3.41 3.41s1.53 3.41 3.41 3.41 3.41-1.53 3.41-3.41-1.53-3.41-3.41-3.41Zm0 6.22c-1.55 0-2.81-1.26-2.81-2.81s1.26-2.81 2.81-2.81 2.81 1.26 2.81 2.81S6.69 9.5 5.14 9.5Z" class="cls-1"/><path d="M5.14 6.49c-.11 0-.2.09-.2.2s.09.2.2.2.2-.09.2-.2-.09-.2-.2-.2Z" class="cls-1"/><path d="M5.14 4.49a2.21 2.21 0 1 0 .001 4.421A2.21 2.21 0 0 0 5.14 4.49Zm-.73.61c.2-.12.47-.18.73-.18s.53.06.73.18c.08.05.1.18.07.27-.03.09-.18.32-.24.35s-.16.04-.21.03-.22-.07-.35-.07c-.12 0-.29.06-.35.07-.05 0-.15 0-.21-.03s-.21-.26-.24-.35c-.03-.09-.01-.23.07-.27ZM3.4 6.89c-.05-.23-.03-.5.05-.75s.22-.48.4-.64c.07-.07.2-.04.28.02.08.06.25.27.26.34s-.01.17-.03.21c-.02.05-.14.19-.17.31-.04.12-.03.3-.04.35 0 .05-.05.14-.1.19-.05.05-.31.12-.41.12-.1 0-.22-.06-.24-.15Zm1.61 1.33c-.03.09-.12.19-.22.18-.23-.03-.48-.13-.7-.28-.21-.15-.39-.36-.48-.57-.04-.09.03-.2.1-.26.08-.06.33-.16.4-.14.07.01.15.06.19.1.04.04.14.19.24.26.1.07.28.12.32.15s.12.09.15.15.02.34-.01.43Zm-.47-1.54c0-.33.27-.6.6-.6s.6.27.6.6-.27.6-.6.6-.6-.27-.6-.6Zm1.64 1.43c-.21.15-.46.26-.7.28-.1.01-.18-.09-.22-.18-.03-.09-.04-.36-.01-.43.03-.06.11-.13.15-.15.04-.02.22-.07.32-.15.1-.07.2-.23.24-.26.04-.04.12-.09.19-.1.07-.01.32.08.4.14s.15.18.1.26c-.1.21-.27.42-.48.57Zm.46-1.08c-.1 0-.36-.07-.41-.12a.439.439 0 0 1-.1-.19c0-.05 0-.23-.04-.35-.04-.12-.15-.26-.17-.31a.466.466 0 0 1-.03-.21c.01-.07.18-.28.26-.34.08-.06.21-.08.28-.02.17.16.32.39.4.64.08.25.1.52.05.75-.02.09-.14.15-.24.15ZM13.86 3.28c-1.88 0-3.41 1.53-3.41 3.41s1.53 3.41 3.41 3.41 3.41-1.53 3.41-3.41-1.53-3.41-3.41-3.41Zm0 6.22c-1.55 0-2.81-1.26-2.81-2.81s1.26-2.81 2.81-2.81 2.81 1.26 2.81 2.81-1.26 2.81-2.81 2.81Z" class="cls-1"/><circle cx="13.86" cy="6.69" r=".2" class="cls-1"/><path d="M13.86 4.49a2.21 2.21 0 1 0 .001 4.421 2.21 2.21 0 0 0-.001-4.421Zm-.73.61c.2-.12.47-.18.73-.18s.53.06.73.18c.08.05.1.18.07.27-.03.09-.18.32-.24.35s-.16.04-.21.03c-.05 0-.22-.07-.35-.07-.12 0-.29.06-.35.07-.05 0-.15 0-.21-.03s-.21-.26-.24-.35c-.03-.09-.01-.23.07-.27Zm-1.01 1.79c-.05-.23-.03-.5.05-.75s.22-.48.4-.64c.07-.07.2-.04.28.02.08.06.25.27.26.34s-.01.17-.03.21c-.02.05-.14.19-.17.31-.04.12-.03.3-.04.35 0 .05-.05.14-.1.19-.05.05-.31.12-.41.12-.1 0-.22-.06-.24-.15Zm1.61 1.33c-.03.09-.12.19-.22.18-.23-.03-.48-.13-.7-.28-.21-.15-.39-.36-.48-.57-.04-.09.03-.2.1-.26.08-.06.33-.16.4-.14.07.01.15.06.19.1.04.04.14.19.24.26.1.07.28.12.32.15s.12.09.15.15.02.34-.01.43Zm-.47-1.54c0-.33.27-.6.6-.6s.6.27.6.6-.27.6-.6.6-.6-.27-.6-.6Zm1.64 1.43c-.21.15-.46.26-.7.28-.1.01-.18-.09-.22-.18-.03-.09-.04-.36-.01-.43.03-.06.11-.13.15-.15.04-.02.22-.07.32-.15.1-.07.2-.23.24-.26.04-.04.12-.09.19-.1.07-.01.32.08.4.14.08.06.15.18.1.26-.1.21-.27.42-.48.57Zm.46-1.08c-.1 0-.36-.07-.41-.12a.439.439 0 0 1-.1-.19c0-.05 0-.23-.04-.35-.04-.12-.15-.26-.17-.31a.466.466 0 0 1-.03-.21c.01-.07.18-.28.26-.34.08-.06.21-.08.28-.02.17.16.32.39.4.64.08.25.1.52.05.75-.02.09-.14.15-.24.15ZM5.14 15.9c-1.88 0-3.41 1.53-3.41 3.41s1.53 3.41 3.41 3.41 3.41-1.53 3.41-3.41-1.53-3.41-3.41-3.41Zm0 6.22c-1.55 0-2.81-1.26-2.81-2.81s1.26-2.81 2.81-2.81 2.81 1.26 2.81 2.81-1.26 2.81-2.81 2.81Z" class="cls-1"/><path d="M5.14 19.11c-.11 0-.2.09-.2.2s.09.2.2.2.2-.09.2-.2-.09-.2-.2-.2Z" class="cls-1"/><path d="M5.14 17.1a2.21 2.21 0 1 0 .001 4.421A2.21 2.21 0 0 0 5.14 17.1Zm-.73.61c.2-.12.47-.18.73-.18s.53.06.73.18c.08.05.1.18.07.27-.03.09-.18.32-.24.35s-.16.04-.21.03c-.05 0-.22-.07-.35-.07-.12 0-.29.06-.35.07-.05 0-.15 0-.21-.03s-.21-.26-.24-.35c-.03-.09-.01-.23.07-.27ZM3.4 19.5c-.05-.23-.03-.5.05-.75s.22-.48.4-.64c.07-.07.2-.04.28.02.08.06.25.27.26.34s-.01.17-.03.21c-.02.05-.14.19-.17.31-.04.12-.03.3-.04.35 0 .05-.05.14-.1.19-.05.05-.31.12-.41.12-.1 0-.22-.06-.24-.15Zm1.61 1.34c-.03.09-.12.19-.22.18-.23-.03-.48-.13-.7-.28-.21-.15-.39-.36-.48-.57-.04-.09.03-.2.1-.26.08-.06.33-.16.4-.14.07.01.15.06.19.1.04.04.14.19.24.26.1.07.28.12.32.15s.12.09.15.15.02.34-.01.43Zm-.47-1.54c0-.33.27-.6.6-.6s.6.27.6.6-.27.6-.6.6-.6-.27-.6-.6Zm1.64 1.43c-.21.15-.46.26-.7.28-.1.01-.18-.09-.22-.18-.03-.09-.04-.36-.01-.43.03-.06.11-.13.15-.15.04-.02.22-.07.32-.15.1-.07.2-.23.24-.26.04-.04.12-.09.19-.1.07-.01.32.08.4.14.08.06.15.18.1.26-.1.21-.27.42-.48.57Zm.46-1.08c-.1 0-.36-.07-.41-.12a.439.439 0 0 1-.1-.19c0-.05 0-.23-.04-.35-.04-.12-.15-.26-.17-.31a.466.466 0 0 1-.03-.21c.01-.07.18-.28.26-.34.08-.06.21-.08.28-.02.17.16.32.39.4.64.08.25.1.52.05.75-.02.09-.14.15-.24.15ZM13.86 15.9c-1.88 0-3.41 1.53-3.41 3.41s1.53 3.41 3.41 3.41 3.41-1.53 3.41-3.41-1.53-3.41-3.41-3.41Zm0 6.22c-1.55 0-2.81-1.26-2.81-2.81s1.26-2.81 2.81-2.81 2.81 1.26 2.81 2.81-1.26 2.81-2.81 2.81Z" class="cls-1"/><circle cx="13.86" cy="19.31" r=".2" class="cls-1"/><path d="M13.86 17.1a2.21 2.21 0 1 0 .001 4.421 2.21 2.21 0 0 0-.001-4.421Zm-.73.61c.2-.12.47-.18.73-.18s.53.06.73.18c.08.05.1.18.07.27-.03.09-.18.32-.24.35s-.16.04-.21.03c-.05 0-.22-.07-.35-.07-.12 0-.29.06-.35.07-.05 0-.15 0-.21-.03s-.21-.26-.24-.35c-.03-.09-.01-.23.07-.27Zm-1.01 1.79c-.05-.23-.03-.5.05-.75s.22-.48.4-.64c.07-.07.2-.04.28.02.08.06.25.27.26.34s-.01.17-.03.21c-.02.05-.14.19-.17.31-.04.12-.03.3-.04.35 0 .05-.05.14-.1.19-.05.05-.31.12-.41.12-.1 0-.22-.06-.24-.15Zm1.61 1.34c-.03.09-.12.19-.22.18-.23-.03-.48-.13-.7-.28-.21-.15-.39-.36-.48-.57-.04-.09.03-.2.1-.26.08-.06.33-.16.4-.14.07.01.15.06.19.1.04.04.14.19.24.26.1.07.28.12.32.15s.12.09.15.15.02.34-.01.43Zm-.47-1.54c0-.33.27-.6.6-.6s.6.27.6.6-.27.6-.6.6-.6-.27-.6-.6Zm1.64 1.43c-.21.15-.46.26-.7.28-.1.01-.18-.09-.22-.18-.03-.09-.04-.36-.01-.43s.11-.13.15-.15c.04-.02.22-.07.32-.15.1-.07.2-.23.24-.26.04-.04.12-.09.19-.1.07-.01.32.08.4.14.08.06.15.18.1.26-.1.21-.27.42-.48.57Zm.46-1.08c-.1 0-.36-.07-.41-.12a.439.439 0 0 1-.1-.19c0-.05 0-.23-.04-.35-.04-.12-.15-.26-.17-.31a.466.466 0 0 1-.03-.21c.01-.07.18-.28.26-.34.08-.06.21-.08.28-.02.17.16.32.39.4.64.08.25.1.52.05.75-.02.09-.14.15-.24.15Z" class="cls-1"/></svg>