<?xml version="1.0" encoding="UTF-8" standalone="no"?><!DOCTYPE svg PUBLIC "-//W3C//DTD SVG 1.1//EN" "http://www.w3.org/Graphics/SVG/1.1/DTD/svg11.dtd"><svg width="100%" height="100%" viewBox="0 0 80 109" version="1.1" xmlns="http://www.w3.org/2000/svg" xmlns:xlink="http://www.w3.org/1999/xlink" xml:space="preserve" xmlns:serif="http://www.serif.com/" style="fill-rule:evenodd;clip-rule:evenodd;stroke-linejoin:round;stroke-miterlimit:2;"><g id="g1988"><path id="path600" d="M12.324,8.333l7.936,0l0,7.822l-7.936,-0l0,-7.822Zm7.938,9.315l0,6.671l-5.172,0l0,-4.025l2.528,0l-0,1.383l-1.266,0l-0,1.264l2.644,-0l0,-4.03l-5.291,0l0,6.56l6.557,0l0,9.431l-7.935,-0l-0,-6.67l5.293,0l0,4.023l-2.528,0l0,-1.38l1.262,-0l-0,-1.377l-2.647,0l0,4.142l5.292,0l-0,-6.672l-6.672,0l-0,-9.318l7.935,-0l0,-0.002Zm0,18.632l0,6.672l-5.172,0l0,-4.142l2.528,0l-0,1.383l-1.266,0l-0,1.376l2.644,0l0,-4.025l-5.291,0l0,6.672l6.557,0l0,9.314l-7.935,0l-0,-6.667l5.293,-0l0,4.025l-2.528,-0l0,-1.381l1.262,0l-0,-1.376l-2.647,0l0,4.025l5.292,0l-0,-6.788l-6.672,-0l-0,-9.085l7.935,-0l0,-0.003Zm0,18.519l0,6.669l-5.172,0l0,-4.025l2.528,0l-0,1.266l-1.266,0l-0,1.381l2.644,-0l0,-3.913l-5.291,0l0,6.672l6.557,-0l0,9.204l-7.935,0l-0,-6.56l5.293,0l0,3.913l-2.528,0l0,-1.383l1.262,0l-0,-1.263l-2.647,-0l0,4.027l5.292,-0l-0,-6.672l-6.672,0l-0,-9.316l7.935,-0Zm0,18.632l0,6.556l-5.172,-0l0,-3.909l2.528,0l-0,1.266l-1.266,0l-0,1.381l2.644,-0l0,-4.03l-5.291,0l0,6.672l6.557,0l0,9.319l-7.935,-0l-0,-6.672l5.293,-0l0,3.908l-2.528,0l0,-1.266l1.262,0l-0,-1.147l-2.647,0l0,3.796l5.292,0l-0,-6.555l-6.672,0l-0,-9.316l7.935,-0l0,-0.003Zm-7.938,18.633l7.936,0l0,7.936l-7.936,0l0,-7.936Zm1.381,-82.467l0,5.292l5.291,-0l0,-5.292l-5.291,0Zm0,83.731l0,5.289l5.291,0l0,-5.289l-5.291,0Zm1.385,-82.352l2.528,-0l-0,2.763l-2.528,0l0,-2.763Zm0,83.616l2.528,0l-0,2.647l-2.528,-0l0,-2.647Zm6.553,-86.259l6.67,0l-0,5.408l-3.911,0l0,-2.763l1.264,-0l-0,1.38l1.266,0l0,-2.759l-3.913,0l0,5.292l6.56,-0l-0,-6.555l9.312,-0l-0,7.821l-6.672,-0l-0,-5.177l4.029,0l0,2.763l-1.263,0l-0,-1.382l-1.381,-0l-0,2.53l4.14,-0l-0,-5.292l-6.787,0l0,6.558l-9.314,-0l0,-7.824Zm0,83.731l6.67,0l-0,5.177l-3.911,-0l0,-2.647l1.264,0l-0,1.495l1.266,0l0,-2.759l-3.913,0l0,5.289l6.56,0l-0,-6.555l9.312,0l-0,7.936l-6.672,0l-0,-5.408l4.029,0l0,2.647l-1.263,-0l-0,-1.152l-1.381,0l-0,2.53l4.14,0l-0,-5.289l-6.787,0l0,6.672l-9.314,0l0,-7.936Zm18.628,-83.731l6.675,0l-0,5.408l-4.028,0l0,-2.763l1.381,-0l-0,1.38l1.266,0l-0,-2.759l-4.025,0l-0,5.292l6.786,-0l0,-6.555l9.314,-0l0,7.821l-6.786,-0l-0,-5.177l4.025,0l0,2.763l-1.266,0l-0,-1.382l-1.495,-0l-0,2.53l4.023,-0l-0,-5.292l-6.555,0l-0,6.558l-9.315,-0l0,-7.824Zm0,83.731l6.675,0l-0,5.177l-4.028,-0l0,-2.647l1.381,0l-0,1.495l1.266,0l-0,-2.759l-4.025,0l-0,5.289l6.786,0l0,-6.555l9.314,0l0,7.936l-6.786,0l-0,-5.408l4.025,0l0,2.647l-1.266,-0l-0,-1.152l-1.495,0l-0,2.53l4.023,0l-0,-5.289l-6.555,0l-0,6.672l-9.315,0l0,-7.936Zm18.638,-83.731l7.933,0l0,7.822l-7.933,-0l-0,-7.822Zm7.933,9.315l0,6.671l-5.403,0l-0,-4.025l2.761,0l-0,1.383l-1.383,0l0,1.264l2.647,-0l-0,-4.03l-5.177,0l0,6.56l6.555,0l0,9.431l-7.933,-0l-0,-6.67l5.289,0l-0,4.023l-2.762,0l0,-1.38l1.379,-0l-0,-1.377l-2.528,0l0,4.142l5.177,0l-0,-6.672l-6.555,0l-0,-9.318l7.933,-0l0,-0.002Zm0,18.632l0,6.672l-5.403,0l-0,-4.142l2.761,0l-0,1.383l-1.383,0l0,1.376l2.647,0l-0,-4.025l-5.177,0l0,6.672l6.555,0l0,9.314l-7.933,0l-0,-6.667l5.289,-0l-0,4.025l-2.762,-0l0,-1.381l1.379,0l-0,-1.376l-2.528,0l0,4.025l5.177,0l-0,-6.788l-6.555,-0l-0,-9.085l7.933,-0l0,-0.003Zm0,18.519l0,6.669l-5.403,0l-0,-4.025l2.761,0l-0,1.266l-1.383,0l0,1.381l2.647,-0l-0,-3.913l-5.177,0l0,6.672l6.555,-0l0,9.204l-7.933,0l-0,-6.56l5.289,0l-0,3.913l-2.762,0l0,-1.383l1.379,0l-0,-1.263l-2.528,-0l0,4.027l5.177,-0l-0,-6.672l-6.555,0l-0,-9.316l7.933,-0Zm0,18.632l0,6.556l-5.403,-0l-0,-3.909l2.761,0l-0,1.266l-1.383,0l0,1.381l2.647,-0l-0,-4.03l-5.177,0l0,6.672l6.555,0l0,9.319l-7.933,-0l-0,-6.672l5.289,-0l-0,3.908l-2.762,0l0,-1.266l1.379,0l-0,-1.147l-2.528,0l0,3.796l5.177,0l-0,-6.555l-6.555,0l-0,-9.316l7.933,-0l0,-0.003Zm-7.933,18.633l7.933,0l0,7.936l-7.933,0l-0,-7.936Zm1.378,-82.467l0,5.292l5.177,-0l-0,-5.292l-5.177,0Zm0,83.731l0,5.289l5.177,0l-0,-5.289l-5.177,0Zm1.152,-82.352l2.761,-0l-0,2.763l-2.761,0l-0,-2.763Zm-0,83.616l2.761,0l-0,2.647l-2.761,-0l-0,-2.647Z" style="fill:#231815;fill-rule:nonzero;"/></g></svg>