<svg xmlns="http://www.w3.org/2000/svg" viewBox="0 0 19 26"><path d="M3.639 3.146h1.707v1.682H3.639zm1.707 2.003v1.434H4.234v-.865h.544v.297h-.273v.272h.569V5.42H3.936v1.411h1.41v2.027H3.64V7.424h1.138v.865h-.543v-.297h.271v-.296h-.569v.891h1.138V7.152H3.64V5.149zm0 4.005v1.435H4.234v-.891h.544v.298h-.273v.296h.569v-.866H3.936v1.435h1.41v2.002H3.64V11.43h1.138v.865h-.543v-.297h.271v-.296h-.569v.866h1.138v-1.46H3.64V9.155zm0 3.982v1.434H4.234v-.866h.544v.273h-.273v.297h.569v-.842H3.936v1.435h1.41v1.979H3.64v-1.411h1.138v.841h-.543v-.297h.271v-.271h-.569v.865h1.138v-1.434H3.64v-2.003zm0 4.006v1.409H4.234v-.84h.544v.272h-.273v.297h.569v-.866H3.936v1.434h1.41v2.004H3.64v-1.435h1.138v.84h-.543v-.272h.271v-.246h-.569v.816h1.138v-1.41H3.64v-2.003zm-1.707 4.006h1.707v1.706H3.639zm.297-17.73v1.137h1.138V3.418zm0 18.002v1.137h1.138V21.42zm.298-17.706h.544v.594h-.544zm0 17.977h.544v.569h-.544zM5.643 3.146h1.434v1.163h-.841v-.594h.272v.296h.272v-.593h-.841v1.138h1.41V3.147h2.002v1.681H7.917V3.715h.866v.594h-.272v-.297h-.296v.544h.89V3.418h-1.46v1.41H5.643zm0 18.002h1.434v1.113h-.841v-.569h.272v.321h.272v-.593h-.841v1.137h1.41v-1.409h2.002v1.706H7.917v-1.163h.866v.569h-.272v-.247h-.296v.544h.89V21.42h-1.46v1.434H5.643zM9.648 3.146h1.435v1.163h-.866v-.594h.297v.296h.272v-.593h-.865v1.138h1.459V3.147h2.002v1.681h-1.459V3.715h.866v.594h-.273v-.297h-.321v.544h.865V3.418h-1.409v1.41H9.648zm0 18.002h1.435v1.113h-.866v-.569h.297v.321h.272v-.593h-.865v1.137h1.459v-1.409h2.002v1.706h-1.459v-1.163h.866v.569h-.273v-.247h-.321v.544h.865V21.42h-1.409v1.434H9.648zm4.007-18.002h1.706v1.682h-1.706zm1.706 2.003v1.434h-1.162v-.865h.594v.297h-.298v.272h.569V5.42h-1.113v1.411h1.41v2.027h-1.706V7.424h1.137v.865h-.594v-.297h.297v-.296h-.544v.891h1.113V7.152h-1.409V5.149zm0 4.005v1.435h-1.162v-.891h.594v.298h-.298v.296h.569v-.866h-1.113v1.435h1.41v2.002h-1.706V11.43h1.137v.865h-.594v-.297h.297v-.296h-.544v.866h1.113v-1.46h-1.409V9.155zm0 3.982v1.434h-1.162v-.866h.594v.273h-.298v.297h.569v-.842h-1.113v1.435h1.41v1.979h-1.706v-1.411h1.137v.841h-.594v-.297h.297v-.271h-.544v.865h1.113v-1.434h-1.409v-2.003zm0 4.006v1.409h-1.162v-.84h.594v.272h-.298v.297h.569v-.866h-1.113v1.434h1.41v2.004h-1.706v-1.435h1.137v.84h-.594v-.272h.297v-.246h-.544v.816h1.113v-1.41h-1.409v-2.003zm-1.706 4.006h1.706v1.706h-1.706zm.296-17.73v1.137h1.113V3.418zm0 18.002v1.137h1.113V21.42zm.248-17.706h.594v.594h-.594zm0 17.977h.594v.569h-.594z" style="fill:#231815"/></svg>